solid OpenSCAD_Model
  facet normal 0.812842 -0.582485 0
    outer loop
      vertex 5.55347 -4.26133 1.2
      vertex 5.82029 -3.88899 0
      vertex 5.82029 -3.88899 1.2
    endloop
  endfacet
  facet normal 0.812842 -0.582485 0
    outer loop
      vertex 5.82029 -3.88899 0
      vertex 5.55347 -4.26133 1.2
      vertex 5.55347 -4.26133 0
    endloop
  endfacet
  facet normal 0.849202 0.528069 0
    outer loop
      vertex 6.06218 3.5 1.2
      vertex 5.82029 3.88899 0
      vertex 5.82029 3.88899 1.2
    endloop
  endfacet
  facet normal 0.849202 0.528069 0
    outer loop
      vertex 5.82029 3.88899 0
      vertex 6.06218 3.5 1.2
      vertex 6.06218 3.5 0
    endloop
  endfacet
  facet normal 0.0980206 0.995184 -0
    outer loop
      vertex 0.913683 6.94011 0
      vertex 0.457822 6.98501 1.2
      vertex 0.913683 6.94011 1.2
    endloop
  endfacet
  facet normal 0.0980206 0.995184 0
    outer loop
      vertex 0.457822 6.98501 1.2
      vertex 0.913683 6.94011 0
      vertex 0.457822 6.98501 0
    endloop
  endfacet
  facet normal 0.634388 0.773015 -0
    outer loop
      vertex 4.61542 5.26288 0
      vertex 4.26133 5.55347 1.2
      vertex 4.61542 5.26288 1.2
    endloop
  endfacet
  facet normal 0.634388 0.773015 0
    outer loop
      vertex 4.26133 5.55347 1.2
      vertex 4.61542 5.26288 0
      vertex 4.26133 5.55347 0
    endloop
  endfacet
  facet normal 0.528069 -0.849202 0
    outer loop
      vertex 3.5 -6.06218 0
      vertex 3.88899 -5.82029 1.2
      vertex 3.5 -6.06218 1.2
    endloop
  endfacet
  facet normal 0.528069 -0.849202 0
    outer loop
      vertex 3.88899 -5.82029 1.2
      vertex 3.5 -6.06218 0
      vertex 3.88899 -5.82029 0
    endloop
  endfacet
  facet normal 0.0327244 0.999464 -0
    outer loop
      vertex 0.457822 6.98501 0
      vertex 0 7 1.2
      vertex 0.457822 6.98501 1.2
    endloop
  endfacet
  facet normal 0.0327244 0.999464 0
    outer loop
      vertex 0 7 1.2
      vertex 0.457822 6.98501 0
      vertex 0 7 0
    endloop
  endfacet
  facet normal -0.352248 -0.935907 0
    outer loop
      vertex -2.67878 -6.46716 0
      vertex -2.25008 -6.62851 1.2
      vertex -2.67878 -6.46716 1.2
    endloop
  endfacet
  facet normal -0.352248 -0.935907 -0
    outer loop
      vertex -2.25008 -6.62851 1.2
      vertex -2.67878 -6.46716 0
      vertex -2.25008 -6.62851 0
    endloop
  endfacet
  facet normal 0.812842 0.582485 0
    outer loop
      vertex 5.82029 3.88899 1.2
      vertex 5.55347 4.26133 0
      vertex 5.55347 4.26133 1.2
    endloop
  endfacet
  facet normal 0.812842 0.582485 0
    outer loop
      vertex 5.55347 4.26133 0
      vertex 5.82029 3.88899 1.2
      vertex 5.82029 3.88899 0
    endloop
  endfacet
  facet normal 0.162881 -0.986646 0
    outer loop
      vertex 0.913683 -6.94011 0
      vertex 1.36563 -6.8655 1.2
      vertex 0.913683 -6.94011 1.2
    endloop
  endfacet
  facet normal 0.162881 -0.986646 0
    outer loop
      vertex 1.36563 -6.8655 1.2
      vertex 0.913683 -6.94011 0
      vertex 1.36563 -6.8655 0
    endloop
  endfacet
  facet normal 0.881923 -0.471394 0
    outer loop
      vertex 6.06218 -3.5 1.2
      vertex 6.27811 -3.09602 0
      vertex 6.27811 -3.09602 1.2
    endloop
  endfacet
  facet normal 0.881923 -0.471394 0
    outer loop
      vertex 6.27811 -3.09602 0
      vertex 6.06218 -3.5 1.2
      vertex 6.06218 -3.5 0
    endloop
  endfacet
  facet normal 0.528069 0.849202 -0
    outer loop
      vertex 3.88899 5.82029 0
      vertex 3.5 6.06218 1.2
      vertex 3.88899 5.82029 1.2
    endloop
  endfacet
  facet normal 0.528069 0.849202 0
    outer loop
      vertex 3.5 6.06218 1.2
      vertex 3.88899 5.82029 0
      vertex 3.5 6.06218 0
    endloop
  endfacet
  facet normal 0.471394 -0.881923 0
    outer loop
      vertex 3.09602 -6.27811 0
      vertex 3.5 -6.06218 1.2
      vertex 3.09602 -6.27811 1.2
    endloop
  endfacet
  facet normal 0.471394 -0.881923 0
    outer loop
      vertex 3.5 -6.06218 1.2
      vertex 3.09602 -6.27811 0
      vertex 3.5 -6.06218 0
    endloop
  endfacet
  facet normal -0.729869 -0.683587 0
    outer loop
      vertex -4.94975 -4.94975 0
      vertex -5.26288 -4.61542 1.2
      vertex -5.26288 -4.61542 0
    endloop
  endfacet
  facet normal -0.729869 -0.683587 0
    outer loop
      vertex -5.26288 -4.61542 1.2
      vertex -4.94975 -4.94975 0
      vertex -4.94975 -4.94975 1.2
    endloop
  endfacet
  facet normal -0.528069 -0.849202 0
    outer loop
      vertex -3.88899 -5.82029 0
      vertex -3.5 -6.06218 1.2
      vertex -3.88899 -5.82029 1.2
    endloop
  endfacet
  facet normal -0.528069 -0.849202 -0
    outer loop
      vertex -3.5 -6.06218 1.2
      vertex -3.88899 -5.82029 0
      vertex -3.5 -6.06218 0
    endloop
  endfacet
  facet normal 0.729869 0.683587 0
    outer loop
      vertex 5.26288 4.61542 1.2
      vertex 4.94975 4.94975 0
      vertex 4.94975 4.94975 1.2
    endloop
  endfacet
  facet normal 0.729869 0.683587 0
    outer loop
      vertex 4.94975 4.94975 0
      vertex 5.26288 4.61542 1.2
      vertex 5.26288 4.61542 0
    endloop
  endfacet
  facet normal -0.227085 -0.973875 0
    outer loop
      vertex -1.81173 -6.76148 0
      vertex -1.36563 -6.8655 1.2
      vertex -1.81173 -6.76148 1.2
    endloop
  endfacet
  facet normal -0.227085 -0.973875 -0
    outer loop
      vertex -1.36563 -6.8655 1.2
      vertex -1.81173 -6.76148 0
      vertex -1.36563 -6.8655 0
    endloop
  endfacet
  facet normal 0.412709 0.910863 -0
    outer loop
      vertex 3.09602 6.27811 0
      vertex 2.67878 6.46716 1.2
      vertex 3.09602 6.27811 1.2
    endloop
  endfacet
  facet normal 0.412709 0.910863 0
    outer loop
      vertex 2.67878 6.46716 1.2
      vertex 3.09602 6.27811 0
      vertex 2.67878 6.46716 0
    endloop
  endfacet
  facet normal 0.0980206 -0.995184 0
    outer loop
      vertex 0.457822 -6.98501 0
      vertex 0.913683 -6.94011 1.2
      vertex 0.457822 -6.98501 1.2
    endloop
  endfacet
  facet normal 0.0980206 -0.995184 0
    outer loop
      vertex 0.913683 -6.94011 1.2
      vertex 0.457822 -6.98501 0
      vertex 0.913683 -6.94011 0
    endloop
  endfacet
  facet normal -0.729869 0.683587 0
    outer loop
      vertex -5.26288 4.61542 0
      vertex -4.94975 4.94975 1.2
      vertex -4.94975 4.94975 0
    endloop
  endfacet
  facet normal -0.729869 0.683587 0
    outer loop
      vertex -4.94975 4.94975 1.2
      vertex -5.26288 4.61542 0
      vertex -5.26288 4.61542 1.2
    endloop
  endfacet
  facet normal 0 0 1
    outer loop
      vertex 1.74308 2.8 1.2
      vertex 6.27811 3.09602 1.2
      vertex 6.06218 3.5 1.2
    endloop
  endfacet
  facet normal 0 0 1
    outer loop
      vertex 1.74308 2.8 1.2
      vertex 6.06218 3.5 1.2
      vertex 5.82029 3.88899 1.2
    endloop
  endfacet
  facet normal 0 0 1
    outer loop
      vertex 1.74308 2.8 1.2
      vertex 5.82029 3.88899 1.2
      vertex 5.55347 4.26133 1.2
    endloop
  endfacet
  facet normal 0 0 1
    outer loop
      vertex 1.74308 2.8 1.2
      vertex 5.55347 4.26133 1.2
      vertex 5.26288 4.61542 1.2
    endloop
  endfacet
  facet normal 0 0 1
    outer loop
      vertex 1.74308 2.8 1.2
      vertex 5.26288 4.61542 1.2
      vertex 4.94975 4.94975 1.2
    endloop
  endfacet
  facet normal 0 0 1
    outer loop
      vertex 1.74308 2.8 1.2
      vertex 4.94975 4.94975 1.2
      vertex 4.61542 5.26288 1.2
    endloop
  endfacet
  facet normal 0 0 1
    outer loop
      vertex 1.74308 2.8 1.2
      vertex 4.61542 5.26288 1.2
      vertex 4.26133 5.55347 1.2
    endloop
  endfacet
  facet normal 0 0 1
    outer loop
      vertex 1.74308 2.8 1.2
      vertex 4.26133 5.55347 1.2
      vertex 3.88899 5.82029 1.2
    endloop
  endfacet
  facet normal 0 0 1
    outer loop
      vertex 1.74308 2.8 1.2
      vertex 3.88899 5.82029 1.2
      vertex 3.5 6.06218 1.2
    endloop
  endfacet
  facet normal 0 0 1
    outer loop
      vertex 1.65 2.85788 1.2
      vertex 3.5 6.06218 1.2
      vertex 3.09602 6.27811 1.2
    endloop
  endfacet
  facet normal 0 0 1
    outer loop
      vertex 1.45955 2.95968 1.2
      vertex 3.09602 6.27811 1.2
      vertex 2.67878 6.46716 1.2
    endloop
  endfacet
  facet normal 0 0 1
    outer loop
      vertex 1.26285 3.0488 1.2
      vertex 2.67878 6.46716 1.2
      vertex 2.25008 6.62851 1.2
    endloop
  endfacet
  facet normal 0 0 1
    outer loop
      vertex 1.06075 3.12487 1.2
      vertex 2.25008 6.62851 1.2
      vertex 1.81173 6.76148 1.2
    endloop
  endfacet
  facet normal 0 0 1
    outer loop
      vertex 6.27811 3.09602 1.2
      vertex 1.74308 2.8 1.2
      vertex 6.41223 2.8 1.2
    endloop
  endfacet
  facet normal 0 0 1
    outer loop
      vertex 3.5 6.06218 1.2
      vertex 1.65 2.85788 1.2
      vertex 1.74308 2.8 1.2
    endloop
  endfacet
  facet normal 0 0 1
    outer loop
      vertex 3.09602 6.27811 1.2
      vertex 1.45955 2.95968 1.2
      vertex 1.65 2.85788 1.2
    endloop
  endfacet
  facet normal 0 0 1
    outer loop
      vertex 0.854102 3.18755 1.2
      vertex 1.81173 6.76148 1.2
      vertex 1.36563 6.8655 1.2
    endloop
  endfacet
  facet normal 0 0 1
    outer loop
      vertex 2.67878 6.46716 1.2
      vertex 1.26285 3.0488 1.2
      vertex 1.45955 2.95968 1.2
    endloop
  endfacet
  facet normal 0 0 1
    outer loop
      vertex 2.25008 6.62851 1.2
      vertex 1.06075 3.12487 1.2
      vertex 1.26285 3.0488 1.2
    endloop
  endfacet
  facet normal 0 0 1
    outer loop
      vertex 0.643798 3.23659 1.2
      vertex 1.36563 6.8655 1.2
      vertex 0.913683 6.94011 1.2
    endloop
  endfacet
  facet normal 0 0 1
    outer loop
      vertex 1.81173 6.76148 1.2
      vertex 0.854102 3.18755 1.2
      vertex 1.06075 3.12487 1.2
    endloop
  endfacet
  facet normal 0 0 1
    outer loop
      vertex 1.36563 6.8655 1.2
      vertex 0.643798 3.23659 1.2
      vertex 0.854102 3.18755 1.2
    endloop
  endfacet
  facet normal 0 0 1
    outer loop
      vertex 0.430736 3.27177 1.2
      vertex 0.913683 6.94011 1.2
      vertex 0.457822 6.98501 1.2
    endloop
  endfacet
  facet normal 0 0 1
    outer loop
      vertex 0.913683 6.94011 1.2
      vertex 0.430736 3.27177 1.2
      vertex 0.643798 3.23659 1.2
    endloop
  endfacet
  facet normal 0 0 1
    outer loop
      vertex 0.457822 6.98501 1.2
      vertex 0.21583 3.29293 1.2
      vertex 0.430736 3.27177 1.2
    endloop
  endfacet
  facet normal 0 0 1
    outer loop
      vertex 0 7 1.2
      vertex 0.21583 3.29293 1.2
      vertex 0.457822 6.98501 1.2
    endloop
  endfacet
  facet normal 0 0 1
    outer loop
      vertex 0 7 1.2
      vertex 0 3.3 1.2
      vertex 0.21583 3.29293 1.2
    endloop
  endfacet
  facet normal 0 0 1
    outer loop
      vertex 0 7 1.2
      vertex -0.21583 3.29293 1.2
      vertex 0 3.3 1.2
    endloop
  endfacet
  facet normal -0 0 1
    outer loop
      vertex -0.457822 6.98501 1.2
      vertex -0.21583 3.29293 1.2
      vertex 0 7 1.2
    endloop
  endfacet
  facet normal 0 0 1
    outer loop
      vertex -0.21583 3.29293 1.2
      vertex -0.457822 6.98501 1.2
      vertex -0.430736 3.27177 1.2
    endloop
  endfacet
  facet normal -0 0 1
    outer loop
      vertex -0.913683 6.94011 1.2
      vertex -0.430736 3.27177 1.2
      vertex -0.457822 6.98501 1.2
    endloop
  endfacet
  facet normal 0 0 1
    outer loop
      vertex -0.430736 3.27177 1.2
      vertex -0.913683 6.94011 1.2
      vertex -0.643798 3.23659 1.2
    endloop
  endfacet
  facet normal -0 0 1
    outer loop
      vertex -1.36563 6.8655 1.2
      vertex -0.643798 3.23659 1.2
      vertex -0.913683 6.94011 1.2
    endloop
  endfacet
  facet normal 0 0 1
    outer loop
      vertex -0.643798 3.23659 1.2
      vertex -1.36563 6.8655 1.2
      vertex -0.854102 3.18755 1.2
    endloop
  endfacet
  facet normal -0 0 1
    outer loop
      vertex -1.81173 6.76148 1.2
      vertex -0.854102 3.18755 1.2
      vertex -1.36563 6.8655 1.2
    endloop
  endfacet
  facet normal 0 0 1
    outer loop
      vertex -0.854102 3.18755 1.2
      vertex -1.81173 6.76148 1.2
      vertex -1.06075 3.12487 1.2
    endloop
  endfacet
  facet normal -0 0 1
    outer loop
      vertex -2.25008 6.62851 1.2
      vertex -1.06075 3.12487 1.2
      vertex -1.81173 6.76148 1.2
    endloop
  endfacet
  facet normal 0 0 1
    outer loop
      vertex -1.06075 3.12487 1.2
      vertex -2.25008 6.62851 1.2
      vertex -1.26285 3.0488 1.2
    endloop
  endfacet
  facet normal -0 0 1
    outer loop
      vertex -2.67878 6.46716 1.2
      vertex -1.26285 3.0488 1.2
      vertex -2.25008 6.62851 1.2
    endloop
  endfacet
  facet normal 0 0 1
    outer loop
      vertex -1.26285 3.0488 1.2
      vertex -2.67878 6.46716 1.2
      vertex -1.45955 2.95968 1.2
    endloop
  endfacet
  facet normal -0 0 1
    outer loop
      vertex -3.09602 6.27811 1.2
      vertex -1.45955 2.95968 1.2
      vertex -2.67878 6.46716 1.2
    endloop
  endfacet
  facet normal 0 0 1
    outer loop
      vertex -1.45955 2.95968 1.2
      vertex -3.09602 6.27811 1.2
      vertex -1.65 2.85788 1.2
    endloop
  endfacet
  facet normal -0 0 1
    outer loop
      vertex -3.5 6.06218 1.2
      vertex -1.65 2.85788 1.2
      vertex -3.09602 6.27811 1.2
    endloop
  endfacet
  facet normal 0 0 1
    outer loop
      vertex -1.65 2.85788 1.2
      vertex -3.5 6.06218 1.2
      vertex -1.83338 2.74385 1.2
    endloop
  endfacet
  facet normal -0 0 1
    outer loop
      vertex -3.88899 5.82029 1.2
      vertex -1.83338 2.74385 1.2
      vertex -3.5 6.06218 1.2
    endloop
  endfacet
  facet normal 0 0 1
    outer loop
      vertex -1.83338 2.74385 1.2
      vertex -3.88899 5.82029 1.2
      vertex -2.00891 2.61807 1.2
    endloop
  endfacet
  facet normal -0 0 1
    outer loop
      vertex -4.26133 5.55347 1.2
      vertex -2.00891 2.61807 1.2
      vertex -3.88899 5.82029 1.2
    endloop
  endfacet
  facet normal 0 0 1
    outer loop
      vertex -2.00891 2.61807 1.2
      vertex -4.26133 5.55347 1.2
      vertex -2.17584 2.48107 1.2
    endloop
  endfacet
  facet normal -0 0 1
    outer loop
      vertex -4.61542 5.26288 1.2
      vertex -2.17584 2.48107 1.2
      vertex -4.26133 5.55347 1.2
    endloop
  endfacet
  facet normal 0 0 1
    outer loop
      vertex -2.17584 2.48107 1.2
      vertex -4.61542 5.26288 1.2
      vertex -2.33345 2.33345 1.2
    endloop
  endfacet
  facet normal -0 0 1
    outer loop
      vertex -4.94975 4.94975 1.2
      vertex -2.33345 2.33345 1.2
      vertex -4.61542 5.26288 1.2
    endloop
  endfacet
  facet normal 0 0 1
    outer loop
      vertex -2.33345 2.33345 1.2
      vertex -4.94975 4.94975 1.2
      vertex -2.48107 2.17584 1.2
    endloop
  endfacet
  facet normal -0 0 1
    outer loop
      vertex -5.26288 4.61542 1.2
      vertex -2.48107 2.17584 1.2
      vertex -4.94975 4.94975 1.2
    endloop
  endfacet
  facet normal 0 0 1
    outer loop
      vertex -2.48107 2.17584 1.2
      vertex -5.26288 4.61542 1.2
      vertex -2.61807 2.00891 1.2
    endloop
  endfacet
  facet normal -0 0 1
    outer loop
      vertex -5.55347 4.26133 1.2
      vertex -2.61807 2.00891 1.2
      vertex -5.26288 4.61542 1.2
    endloop
  endfacet
  facet normal 0 0 1
    outer loop
      vertex -2.61807 2.00891 1.2
      vertex -5.55347 4.26133 1.2
      vertex -2.74385 1.83338 1.2
    endloop
  endfacet
  facet normal -0 0 1
    outer loop
      vertex -5.82029 3.88899 1.2
      vertex -2.74385 1.83338 1.2
      vertex -5.55347 4.26133 1.2
    endloop
  endfacet
  facet normal 0 0 1
    outer loop
      vertex -2.74385 1.83338 1.2
      vertex -5.82029 3.88899 1.2
      vertex -2.85788 1.65 1.2
    endloop
  endfacet
  facet normal -0 0 1
    outer loop
      vertex -6.06218 3.5 1.2
      vertex -2.85788 1.65 1.2
      vertex -5.82029 3.88899 1.2
    endloop
  endfacet
  facet normal -0 0 1
    outer loop
      vertex 1.74308 -2.8 1.2
      vertex 6.27811 -3.09602 1.2
      vertex 6.41223 -2.8 1.2
    endloop
  endfacet
  facet normal 0 0 1
    outer loop
      vertex 6.27811 -3.09602 1.2
      vertex 1.74308 -2.8 1.2
      vertex 6.06218 -3.5 1.2
    endloop
  endfacet
  facet normal 0 0 1
    outer loop
      vertex 6.06218 -3.5 1.2
      vertex 1.74308 -2.8 1.2
      vertex 5.82029 -3.88899 1.2
    endloop
  endfacet
  facet normal 0 0 1
    outer loop
      vertex 5.82029 -3.88899 1.2
      vertex 1.74308 -2.8 1.2
      vertex 5.55347 -4.26133 1.2
    endloop
  endfacet
  facet normal 0 0 1
    outer loop
      vertex 5.55347 -4.26133 1.2
      vertex 1.74308 -2.8 1.2
      vertex 5.26288 -4.61542 1.2
    endloop
  endfacet
  facet normal 0 0 1
    outer loop
      vertex 5.26288 -4.61542 1.2
      vertex 1.74308 -2.8 1.2
      vertex 4.94975 -4.94975 1.2
    endloop
  endfacet
  facet normal 0 0 1
    outer loop
      vertex 4.94975 -4.94975 1.2
      vertex 1.74308 -2.8 1.2
      vertex 4.61542 -5.26288 1.2
    endloop
  endfacet
  facet normal 0 0 1
    outer loop
      vertex 4.61542 -5.26288 1.2
      vertex 1.74308 -2.8 1.2
      vertex 4.26133 -5.55347 1.2
    endloop
  endfacet
  facet normal 0 0 1
    outer loop
      vertex 4.26133 -5.55347 1.2
      vertex 1.74308 -2.8 1.2
      vertex 3.88899 -5.82029 1.2
    endloop
  endfacet
  facet normal 0 0 1
    outer loop
      vertex 3.88899 -5.82029 1.2
      vertex 1.74308 -2.8 1.2
      vertex 3.5 -6.06218 1.2
    endloop
  endfacet
  facet normal -0 0 1
    outer loop
      vertex 1.65 -2.85788 1.2
      vertex 3.5 -6.06218 1.2
      vertex 1.74308 -2.8 1.2
    endloop
  endfacet
  facet normal 0 0 1
    outer loop
      vertex 3.5 -6.06218 1.2
      vertex 1.65 -2.85788 1.2
      vertex 3.09602 -6.27811 1.2
    endloop
  endfacet
  facet normal -0 0 1
    outer loop
      vertex 1.45955 -2.95968 1.2
      vertex 3.09602 -6.27811 1.2
      vertex 1.65 -2.85788 1.2
    endloop
  endfacet
  facet normal 0 0 1
    outer loop
      vertex 3.09602 -6.27811 1.2
      vertex 1.45955 -2.95968 1.2
      vertex 2.67878 -6.46716 1.2
    endloop
  endfacet
  facet normal -0 0 1
    outer loop
      vertex 1.26285 -3.0488 1.2
      vertex 2.67878 -6.46716 1.2
      vertex 1.45955 -2.95968 1.2
    endloop
  endfacet
  facet normal 0 0 1
    outer loop
      vertex 2.67878 -6.46716 1.2
      vertex 1.26285 -3.0488 1.2
      vertex 2.25008 -6.62851 1.2
    endloop
  endfacet
  facet normal -0 0 1
    outer loop
      vertex 1.06075 -3.12487 1.2
      vertex 2.25008 -6.62851 1.2
      vertex 1.26285 -3.0488 1.2
    endloop
  endfacet
  facet normal 0 0 1
    outer loop
      vertex 2.25008 -6.62851 1.2
      vertex 1.06075 -3.12487 1.2
      vertex 1.81173 -6.76148 1.2
    endloop
  endfacet
  facet normal -0 0 1
    outer loop
      vertex 0.854102 -3.18755 1.2
      vertex 1.81173 -6.76148 1.2
      vertex 1.06075 -3.12487 1.2
    endloop
  endfacet
  facet normal 0 0 1
    outer loop
      vertex 1.81173 -6.76148 1.2
      vertex 0.854102 -3.18755 1.2
      vertex 1.36563 -6.8655 1.2
    endloop
  endfacet
  facet normal -0 0 1
    outer loop
      vertex 0.643798 -3.23659 1.2
      vertex 1.36563 -6.8655 1.2
      vertex 0.854102 -3.18755 1.2
    endloop
  endfacet
  facet normal 0 0 1
    outer loop
      vertex 1.36563 -6.8655 1.2
      vertex 0.643798 -3.23659 1.2
      vertex 0.913683 -6.94011 1.2
    endloop
  endfacet
  facet normal -0 0 1
    outer loop
      vertex 0.430736 -3.27177 1.2
      vertex 0.913683 -6.94011 1.2
      vertex 0.643798 -3.23659 1.2
    endloop
  endfacet
  facet normal 0 0 1
    outer loop
      vertex 0.913683 -6.94011 1.2
      vertex 0.430736 -3.27177 1.2
      vertex 0.457822 -6.98501 1.2
    endloop
  endfacet
  facet normal -0 0 1
    outer loop
      vertex 0.21583 -3.29293 1.2
      vertex 0.457822 -6.98501 1.2
      vertex 0.430736 -3.27177 1.2
    endloop
  endfacet
  facet normal -0 0 1
    outer loop
      vertex 0 -3.3 1.2
      vertex 0.457822 -6.98501 1.2
      vertex 0.21583 -3.29293 1.2
    endloop
  endfacet
  facet normal 0 0 1
    outer loop
      vertex 0 -3.3 1.2
      vertex 0 -7 1.2
      vertex 0.457822 -6.98501 1.2
    endloop
  endfacet
  facet normal 0 0 1
    outer loop
      vertex -0.21583 -3.29293 1.2
      vertex 0 -7 1.2
      vertex 0 -3.3 1.2
    endloop
  endfacet
  facet normal 0 0 1
    outer loop
      vertex -0.457822 -6.98501 1.2
      vertex -0.21583 -3.29293 1.2
      vertex -0.430736 -3.27177 1.2
    endloop
  endfacet
  facet normal 0 0 1
    outer loop
      vertex -0.21583 -3.29293 1.2
      vertex -0.457822 -6.98501 1.2
      vertex 0 -7 1.2
    endloop
  endfacet
  facet normal 0 0 1
    outer loop
      vertex -0.913683 -6.94011 1.2
      vertex -0.430736 -3.27177 1.2
      vertex -0.643798 -3.23659 1.2
    endloop
  endfacet
  facet normal 0 0 1
    outer loop
      vertex -1.36563 -6.8655 1.2
      vertex -0.643798 -3.23659 1.2
      vertex -0.854102 -3.18755 1.2
    endloop
  endfacet
  facet normal 0 0 1
    outer loop
      vertex -0.430736 -3.27177 1.2
      vertex -0.913683 -6.94011 1.2
      vertex -0.457822 -6.98501 1.2
    endloop
  endfacet
  facet normal 0 0 1
    outer loop
      vertex -1.81173 -6.76148 1.2
      vertex -0.854102 -3.18755 1.2
      vertex -1.06075 -3.12487 1.2
    endloop
  endfacet
  facet normal 0 0 1
    outer loop
      vertex -2.25008 -6.62851 1.2
      vertex -1.06075 -3.12487 1.2
      vertex -1.26285 -3.0488 1.2
    endloop
  endfacet
  facet normal 0 0 1
    outer loop
      vertex -0.643798 -3.23659 1.2
      vertex -1.36563 -6.8655 1.2
      vertex -0.913683 -6.94011 1.2
    endloop
  endfacet
  facet normal 0 0 1
    outer loop
      vertex -2.67878 -6.46716 1.2
      vertex -1.26285 -3.0488 1.2
      vertex -1.45955 -2.95968 1.2
    endloop
  endfacet
  facet normal 0 0 1
    outer loop
      vertex -3.09602 -6.27811 1.2
      vertex -1.45955 -2.95968 1.2
      vertex -1.65 -2.85788 1.2
    endloop
  endfacet
  facet normal 0 0 1
    outer loop
      vertex -0.854102 -3.18755 1.2
      vertex -1.81173 -6.76148 1.2
      vertex -1.36563 -6.8655 1.2
    endloop
  endfacet
  facet normal 0 0 1
    outer loop
      vertex -3.5 -6.06218 1.2
      vertex -1.65 -2.85788 1.2
      vertex -1.83338 -2.74385 1.2
    endloop
  endfacet
  facet normal 0 0 1
    outer loop
      vertex -3.88899 -5.82029 1.2
      vertex -1.83338 -2.74385 1.2
      vertex -2.00891 -2.61807 1.2
    endloop
  endfacet
  facet normal 0 0 1
    outer loop
      vertex -4.26133 -5.55347 1.2
      vertex -2.00891 -2.61807 1.2
      vertex -2.17584 -2.48107 1.2
    endloop
  endfacet
  facet normal 0 0 1
    outer loop
      vertex -1.06075 -3.12487 1.2
      vertex -2.25008 -6.62851 1.2
      vertex -1.81173 -6.76148 1.2
    endloop
  endfacet
  facet normal 0 0 1
    outer loop
      vertex -4.61542 -5.26288 1.2
      vertex -2.17584 -2.48107 1.2
      vertex -2.33345 -2.33345 1.2
    endloop
  endfacet
  facet normal 0 0 1
    outer loop
      vertex -4.94975 -4.94975 1.2
      vertex -2.33345 -2.33345 1.2
      vertex -2.48107 -2.17584 1.2
    endloop
  endfacet
  facet normal 0 0 1
    outer loop
      vertex -5.26288 -4.61542 1.2
      vertex -2.48107 -2.17584 1.2
      vertex -2.61807 -2.00891 1.2
    endloop
  endfacet
  facet normal 0 0 1
    outer loop
      vertex -1.26285 -3.0488 1.2
      vertex -2.67878 -6.46716 1.2
      vertex -2.25008 -6.62851 1.2
    endloop
  endfacet
  facet normal 0 0 1
    outer loop
      vertex -5.55347 -4.26133 1.2
      vertex -2.61807 -2.00891 1.2
      vertex -2.74385 -1.83338 1.2
    endloop
  endfacet
  facet normal 0 0 1
    outer loop
      vertex -5.82029 -3.88899 1.2
      vertex -2.74385 -1.83338 1.2
      vertex -2.85788 -1.65 1.2
    endloop
  endfacet
  facet normal 0 0 1
    outer loop
      vertex -6.06218 -3.5 1.2
      vertex -2.85788 -1.65 1.2
      vertex -2.95968 -1.45955 1.2
    endloop
  endfacet
  facet normal 0 0 1
    outer loop
      vertex -6.27811 -3.09602 1.2
      vertex -2.95968 -1.45955 1.2
      vertex -3.0488 -1.26285 1.2
    endloop
  endfacet
  facet normal 0 0 1
    outer loop
      vertex -1.45955 -2.95968 1.2
      vertex -3.09602 -6.27811 1.2
      vertex -2.67878 -6.46716 1.2
    endloop
  endfacet
  facet normal 0 0 1
    outer loop
      vertex -6.46716 -2.67878 1.2
      vertex -3.0488 -1.26285 1.2
      vertex -3.12487 -1.06075 1.2
    endloop
  endfacet
  facet normal 0 0 1
    outer loop
      vertex -6.62851 -2.25008 1.2
      vertex -3.12487 -1.06075 1.2
      vertex -3.18755 -0.854102 1.2
    endloop
  endfacet
  facet normal 0 0 1
    outer loop
      vertex -6.76148 -1.81173 1.2
      vertex -3.18755 -0.854102 1.2
      vertex -3.23659 -0.643798 1.2
    endloop
  endfacet
  facet normal 0 0 1
    outer loop
      vertex -6.8655 -1.36563 1.2
      vertex -3.23659 -0.643798 1.2
      vertex -3.27177 -0.430736 1.2
    endloop
  endfacet
  facet normal 0 0 1
    outer loop
      vertex -6.94011 -0.913683 1.2
      vertex -3.27177 -0.430736 1.2
      vertex -3.29293 -0.21583 1.2
    endloop
  endfacet
  facet normal 0 0 1
    outer loop
      vertex -6.98501 -0.457822 1.2
      vertex -3.29293 -0.21583 1.2
      vertex -3.3 0 1.2
    endloop
  endfacet
  facet normal 0 0 1
    outer loop
      vertex -2.85788 1.65 1.2
      vertex -6.06218 3.5 1.2
      vertex -2.95968 1.45955 1.2
    endloop
  endfacet
  facet normal 0 0 1
    outer loop
      vertex -1.65 -2.85788 1.2
      vertex -3.5 -6.06218 1.2
      vertex -3.09602 -6.27811 1.2
    endloop
  endfacet
  facet normal -0 0 1
    outer loop
      vertex -6.27811 3.09602 1.2
      vertex -2.95968 1.45955 1.2
      vertex -6.06218 3.5 1.2
    endloop
  endfacet
  facet normal 0 0 1
    outer loop
      vertex -1.83338 -2.74385 1.2
      vertex -3.88899 -5.82029 1.2
      vertex -3.5 -6.06218 1.2
    endloop
  endfacet
  facet normal 0 0 1
    outer loop
      vertex -2.95968 1.45955 1.2
      vertex -6.27811 3.09602 1.2
      vertex -3.0488 1.26285 1.2
    endloop
  endfacet
  facet normal 0 0 1
    outer loop
      vertex -2.00891 -2.61807 1.2
      vertex -4.26133 -5.55347 1.2
      vertex -3.88899 -5.82029 1.2
    endloop
  endfacet
  facet normal -0 0 1
    outer loop
      vertex -6.46716 2.67878 1.2
      vertex -3.0488 1.26285 1.2
      vertex -6.27811 3.09602 1.2
    endloop
  endfacet
  facet normal 0 0 1
    outer loop
      vertex -2.17584 -2.48107 1.2
      vertex -4.61542 -5.26288 1.2
      vertex -4.26133 -5.55347 1.2
    endloop
  endfacet
  facet normal 0 0 1
    outer loop
      vertex -3.0488 1.26285 1.2
      vertex -6.46716 2.67878 1.2
      vertex -3.12487 1.06075 1.2
    endloop
  endfacet
  facet normal 0 0 1
    outer loop
      vertex -2.33345 -2.33345 1.2
      vertex -4.94975 -4.94975 1.2
      vertex -4.61542 -5.26288 1.2
    endloop
  endfacet
  facet normal -0 0 1
    outer loop
      vertex -6.62851 2.25008 1.2
      vertex -3.12487 1.06075 1.2
      vertex -6.46716 2.67878 1.2
    endloop
  endfacet
  facet normal 0 0 1
    outer loop
      vertex -2.48107 -2.17584 1.2
      vertex -5.26288 -4.61542 1.2
      vertex -4.94975 -4.94975 1.2
    endloop
  endfacet
  facet normal 0 0 1
    outer loop
      vertex -3.12487 1.06075 1.2
      vertex -6.62851 2.25008 1.2
      vertex -3.18755 0.854102 1.2
    endloop
  endfacet
  facet normal 0 0 1
    outer loop
      vertex -2.61807 -2.00891 1.2
      vertex -5.55347 -4.26133 1.2
      vertex -5.26288 -4.61542 1.2
    endloop
  endfacet
  facet normal -0 0 1
    outer loop
      vertex -6.76148 1.81173 1.2
      vertex -3.18755 0.854102 1.2
      vertex -6.62851 2.25008 1.2
    endloop
  endfacet
  facet normal 0 0 1
    outer loop
      vertex -2.74385 -1.83338 1.2
      vertex -5.82029 -3.88899 1.2
      vertex -5.55347 -4.26133 1.2
    endloop
  endfacet
  facet normal 0 0 1
    outer loop
      vertex -3.18755 0.854102 1.2
      vertex -6.76148 1.81173 1.2
      vertex -3.23659 0.643798 1.2
    endloop
  endfacet
  facet normal 0 0 1
    outer loop
      vertex -2.85788 -1.65 1.2
      vertex -6.06218 -3.5 1.2
      vertex -5.82029 -3.88899 1.2
    endloop
  endfacet
  facet normal -0 0 1
    outer loop
      vertex -6.8655 1.36563 1.2
      vertex -3.23659 0.643798 1.2
      vertex -6.76148 1.81173 1.2
    endloop
  endfacet
  facet normal 0 0 1
    outer loop
      vertex -2.95968 -1.45955 1.2
      vertex -6.27811 -3.09602 1.2
      vertex -6.06218 -3.5 1.2
    endloop
  endfacet
  facet normal 0 0 1
    outer loop
      vertex -3.23659 0.643798 1.2
      vertex -6.8655 1.36563 1.2
      vertex -3.27177 0.430736 1.2
    endloop
  endfacet
  facet normal 0 0 1
    outer loop
      vertex -3.0488 -1.26285 1.2
      vertex -6.46716 -2.67878 1.2
      vertex -6.27811 -3.09602 1.2
    endloop
  endfacet
  facet normal -0 0 1
    outer loop
      vertex -6.94011 0.913683 1.2
      vertex -3.27177 0.430736 1.2
      vertex -6.8655 1.36563 1.2
    endloop
  endfacet
  facet normal 0 0 1
    outer loop
      vertex -3.12487 -1.06075 1.2
      vertex -6.62851 -2.25008 1.2
      vertex -6.46716 -2.67878 1.2
    endloop
  endfacet
  facet normal 0 0 1
    outer loop
      vertex -3.27177 0.430736 1.2
      vertex -6.94011 0.913683 1.2
      vertex -3.29293 0.21583 1.2
    endloop
  endfacet
  facet normal 0 0 1
    outer loop
      vertex -3.18755 -0.854102 1.2
      vertex -6.76148 -1.81173 1.2
      vertex -6.62851 -2.25008 1.2
    endloop
  endfacet
  facet normal -0 0 1
    outer loop
      vertex -6.98501 0.457822 1.2
      vertex -3.29293 0.21583 1.2
      vertex -6.94011 0.913683 1.2
    endloop
  endfacet
  facet normal 0 0 1
    outer loop
      vertex -3.23659 -0.643798 1.2
      vertex -6.8655 -1.36563 1.2
      vertex -6.76148 -1.81173 1.2
    endloop
  endfacet
  facet normal 0 0 1
    outer loop
      vertex -3.29293 0.21583 1.2
      vertex -6.98501 0.457822 1.2
      vertex -3.3 0 1.2
    endloop
  endfacet
  facet normal 0 0 1
    outer loop
      vertex -3.27177 -0.430736 1.2
      vertex -6.94011 -0.913683 1.2
      vertex -6.8655 -1.36563 1.2
    endloop
  endfacet
  facet normal 0 0 1
    outer loop
      vertex -7 0 1.2
      vertex -3.3 0 1.2
      vertex -6.98501 0.457822 1.2
    endloop
  endfacet
  facet normal 0 0 1
    outer loop
      vertex -3.29293 -0.21583 1.2
      vertex -6.98501 -0.457822 1.2
      vertex -6.94011 -0.913683 1.2
    endloop
  endfacet
  facet normal 0 0 1
    outer loop
      vertex -3.3 0 1.2
      vertex -7 0 1.2
      vertex -6.98501 -0.457822 1.2
    endloop
  endfacet
  facet normal 0.471394 0.881923 -0
    outer loop
      vertex 3.5 6.06218 0
      vertex 3.09602 6.27811 1.2
      vertex 3.5 6.06218 1.2
    endloop
  endfacet
  facet normal 0.471394 0.881923 0
    outer loop
      vertex 3.09602 6.27811 1.2
      vertex 3.5 6.06218 0
      vertex 3.09602 6.27811 0
    endloop
  endfacet
  facet normal 0.683587 0.729869 -0
    outer loop
      vertex 4.94975 4.94975 0
      vertex 4.61542 5.26288 1.2
      vertex 4.94975 4.94975 1.2
    endloop
  endfacet
  facet normal 0.683587 0.729869 0
    outer loop
      vertex 4.61542 5.26288 1.2
      vertex 4.94975 4.94975 0
      vertex 4.61542 5.26288 0
    endloop
  endfacet
  facet normal -0.0327244 0.999464 0
    outer loop
      vertex 0 7 0
      vertex -0.457822 6.98501 1.2
      vertex 0 7 1.2
    endloop
  endfacet
  facet normal -0.0327244 0.999464 0
    outer loop
      vertex -0.457822 6.98501 1.2
      vertex 0 7 0
      vertex -0.457822 6.98501 0
    endloop
  endfacet
  facet normal -0.683587 0.729869 0
    outer loop
      vertex -4.61542 5.26288 0
      vertex -4.94975 4.94975 1.2
      vertex -4.61542 5.26288 1.2
    endloop
  endfacet
  facet normal -0.683587 0.729869 0
    outer loop
      vertex -4.94975 4.94975 1.2
      vertex -4.61542 5.26288 0
      vertex -4.94975 4.94975 0
    endloop
  endfacet
  facet normal -0.973875 0.227085 0
    outer loop
      vertex -6.8655 1.36563 0
      vertex -6.76148 1.81173 1.2
      vertex -6.76148 1.81173 0
    endloop
  endfacet
  facet normal -0.973875 0.227085 0
    outer loop
      vertex -6.76148 1.81173 1.2
      vertex -6.8655 1.36563 0
      vertex -6.8655 1.36563 1.2
    endloop
  endfacet
  facet normal -0.352248 0.935907 0
    outer loop
      vertex -2.25008 6.62851 0
      vertex -2.67878 6.46716 1.2
      vertex -2.25008 6.62851 1.2
    endloop
  endfacet
  facet normal -0.352248 0.935907 0
    outer loop
      vertex -2.67878 6.46716 1.2
      vertex -2.25008 6.62851 0
      vertex -2.67878 6.46716 0
    endloop
  endfacet
  facet normal 0.0327244 -0.999464 0
    outer loop
      vertex 0 -7 0
      vertex 0.457822 -6.98501 1.2
      vertex 0 -7 1.2
    endloop
  endfacet
  facet normal 0.0327244 -0.999464 0
    outer loop
      vertex 0.457822 -6.98501 1.2
      vertex 0 -7 0
      vertex 0.457822 -6.98501 0
    endloop
  endfacet
  facet normal 0.582485 0.812842 -0
    outer loop
      vertex 4.26133 5.55347 0
      vertex 3.88899 5.82029 1.2
      vertex 4.26133 5.55347 1.2
    endloop
  endfacet
  facet normal 0.582485 0.812842 0
    outer loop
      vertex 3.88899 5.82029 1.2
      vertex 4.26133 5.55347 0
      vertex 3.88899 5.82029 0
    endloop
  endfacet
  facet normal 0.290281 -0.956942 0
    outer loop
      vertex 1.81173 -6.76148 0
      vertex 2.25008 -6.62851 1.2
      vertex 1.81173 -6.76148 1.2
    endloop
  endfacet
  facet normal 0.290281 -0.956942 0
    outer loop
      vertex 2.25008 -6.62851 1.2
      vertex 1.81173 -6.76148 0
      vertex 2.25008 -6.62851 0
    endloop
  endfacet
  facet normal -0.471394 -0.881923 0
    outer loop
      vertex -3.5 -6.06218 0
      vertex -3.09602 -6.27811 1.2
      vertex -3.5 -6.06218 1.2
    endloop
  endfacet
  facet normal -0.471394 -0.881923 -0
    outer loop
      vertex -3.09602 -6.27811 1.2
      vertex -3.5 -6.06218 0
      vertex -3.09602 -6.27811 0
    endloop
  endfacet
  facet normal -0.910863 -0.412709 0
    outer loop
      vertex -6.27811 -3.09602 0
      vertex -6.46716 -2.67878 1.2
      vertex -6.46716 -2.67878 0
    endloop
  endfacet
  facet normal -0.910863 -0.412709 0
    outer loop
      vertex -6.46716 -2.67878 1.2
      vertex -6.27811 -3.09602 0
      vertex -6.27811 -3.09602 1.2
    endloop
  endfacet
  facet normal -0.162881 0.986646 0
    outer loop
      vertex -0.913683 6.94011 0
      vertex -1.36563 6.8655 1.2
      vertex -0.913683 6.94011 1.2
    endloop
  endfacet
  facet normal -0.162881 0.986646 0
    outer loop
      vertex -1.36563 6.8655 1.2
      vertex -0.913683 6.94011 0
      vertex -1.36563 6.8655 0
    endloop
  endfacet
  facet normal 0.849202 -0.528069 0
    outer loop
      vertex 5.82029 -3.88899 1.2
      vertex 6.06218 -3.5 0
      vertex 6.06218 -3.5 1.2
    endloop
  endfacet
  facet normal 0.849202 -0.528069 0
    outer loop
      vertex 6.06218 -3.5 0
      vertex 5.82029 -3.88899 1.2
      vertex 5.82029 -3.88899 0
    endloop
  endfacet
  facet normal -0.935907 -0.352248 0
    outer loop
      vertex -6.46716 -2.67878 0
      vertex -6.62851 -2.25008 1.2
      vertex -6.62851 -2.25008 0
    endloop
  endfacet
  facet normal -0.935907 -0.352248 0
    outer loop
      vertex -6.62851 -2.25008 1.2
      vertex -6.46716 -2.67878 0
      vertex -6.46716 -2.67878 1.2
    endloop
  endfacet
  facet normal 0.162881 0.986646 -0
    outer loop
      vertex 1.36563 6.8655 0
      vertex 0.913683 6.94011 1.2
      vertex 1.36563 6.8655 1.2
    endloop
  endfacet
  facet normal 0.162881 0.986646 0
    outer loop
      vertex 0.913683 6.94011 1.2
      vertex 1.36563 6.8655 0
      vertex 0.913683 6.94011 0
    endloop
  endfacet
  facet normal 0.352248 -0.935907 0
    outer loop
      vertex 2.25008 -6.62851 0
      vertex 2.67878 -6.46716 1.2
      vertex 2.25008 -6.62851 1.2
    endloop
  endfacet
  facet normal 0.352248 -0.935907 0
    outer loop
      vertex 2.67878 -6.46716 1.2
      vertex 2.25008 -6.62851 0
      vertex 2.67878 -6.46716 0
    endloop
  endfacet
  facet normal 0.634388 -0.773015 0
    outer loop
      vertex 4.26133 -5.55347 0
      vertex 4.61542 -5.26288 1.2
      vertex 4.26133 -5.55347 1.2
    endloop
  endfacet
  facet normal 0.634388 -0.773015 0
    outer loop
      vertex 4.61542 -5.26288 1.2
      vertex 4.26133 -5.55347 0
      vertex 4.61542 -5.26288 0
    endloop
  endfacet
  facet normal 0.91087 0.412694 0
    outer loop
      vertex 6.41223 2.8 1.2
      vertex 6.27811 3.09602 0
      vertex 6.27811 3.09602 1.2
    endloop
  endfacet
  facet normal 0.91087 0.412694 0
    outer loop
      vertex 6.27811 3.09602 0
      vertex 6.41223 2.8 1.2
      vertex 6.41223 2.8 0
    endloop
  endfacet
  facet normal 0.412709 -0.910863 0
    outer loop
      vertex 2.67878 -6.46716 0
      vertex 3.09602 -6.27811 1.2
      vertex 2.67878 -6.46716 1.2
    endloop
  endfacet
  facet normal 0.412709 -0.910863 0
    outer loop
      vertex 3.09602 -6.27811 1.2
      vertex 2.67878 -6.46716 0
      vertex 3.09602 -6.27811 0
    endloop
  endfacet
  facet normal 0.227085 -0.973875 0
    outer loop
      vertex 1.36563 -6.8655 0
      vertex 1.81173 -6.76148 1.2
      vertex 1.36563 -6.8655 1.2
    endloop
  endfacet
  facet normal 0.227085 -0.973875 0
    outer loop
      vertex 1.81173 -6.76148 1.2
      vertex 1.36563 -6.8655 0
      vertex 1.81173 -6.76148 0
    endloop
  endfacet
  facet normal -0.986646 -0.162881 0
    outer loop
      vertex -6.8655 -1.36563 0
      vertex -6.94011 -0.913683 1.2
      vertex -6.94011 -0.913683 0
    endloop
  endfacet
  facet normal -0.986646 -0.162881 0
    outer loop
      vertex -6.94011 -0.913683 1.2
      vertex -6.8655 -1.36563 0
      vertex -6.8655 -1.36563 1.2
    endloop
  endfacet
  facet normal 0.881923 0.471394 0
    outer loop
      vertex 6.27811 3.09602 1.2
      vertex 6.06218 3.5 0
      vertex 6.06218 3.5 1.2
    endloop
  endfacet
  facet normal 0.881923 0.471394 0
    outer loop
      vertex 6.06218 3.5 0
      vertex 6.27811 3.09602 1.2
      vertex 6.27811 3.09602 0
    endloop
  endfacet
  facet normal 0.582485 -0.812842 0
    outer loop
      vertex 3.88899 -5.82029 0
      vertex 4.26133 -5.55347 1.2
      vertex 3.88899 -5.82029 1.2
    endloop
  endfacet
  facet normal 0.582485 -0.812842 0
    outer loop
      vertex 4.26133 -5.55347 1.2
      vertex 3.88899 -5.82029 0
      vertex 4.26133 -5.55347 0
    endloop
  endfacet
  facet normal 0.773015 0.634388 0
    outer loop
      vertex 5.55347 4.26133 1.2
      vertex 5.26288 4.61542 0
      vertex 5.26288 4.61542 1.2
    endloop
  endfacet
  facet normal 0.773015 0.634388 0
    outer loop
      vertex 5.26288 4.61542 0
      vertex 5.55347 4.26133 1.2
      vertex 5.55347 4.26133 0
    endloop
  endfacet
  facet normal -0.528069 0.849202 0
    outer loop
      vertex -3.5 6.06218 0
      vertex -3.88899 5.82029 1.2
      vertex -3.5 6.06218 1.2
    endloop
  endfacet
  facet normal -0.528069 0.849202 0
    outer loop
      vertex -3.88899 5.82029 1.2
      vertex -3.5 6.06218 0
      vertex -3.88899 5.82029 0
    endloop
  endfacet
  facet normal 0.227085 0.973875 -0
    outer loop
      vertex 1.81173 6.76148 0
      vertex 1.36563 6.8655 1.2
      vertex 1.81173 6.76148 1.2
    endloop
  endfacet
  facet normal 0.227085 0.973875 0
    outer loop
      vertex 1.36563 6.8655 1.2
      vertex 1.81173 6.76148 0
      vertex 1.36563 6.8655 0
    endloop
  endfacet
  facet normal -0.881923 -0.471394 0
    outer loop
      vertex -6.06218 -3.5 0
      vertex -6.27811 -3.09602 1.2
      vertex -6.27811 -3.09602 0
    endloop
  endfacet
  facet normal -0.881923 -0.471394 0
    outer loop
      vertex -6.27811 -3.09602 1.2
      vertex -6.06218 -3.5 0
      vertex -6.06218 -3.5 1.2
    endloop
  endfacet
  facet normal -0.849202 -0.528069 0
    outer loop
      vertex -5.82029 -3.88899 0
      vertex -6.06218 -3.5 1.2
      vertex -6.06218 -3.5 0
    endloop
  endfacet
  facet normal -0.849202 -0.528069 0
    outer loop
      vertex -6.06218 -3.5 1.2
      vertex -5.82029 -3.88899 0
      vertex -5.82029 -3.88899 1.2
    endloop
  endfacet
  facet normal -0.0980206 0.995184 0
    outer loop
      vertex -0.457822 6.98501 0
      vertex -0.913683 6.94011 1.2
      vertex -0.457822 6.98501 1.2
    endloop
  endfacet
  facet normal -0.0980206 0.995184 0
    outer loop
      vertex -0.913683 6.94011 1.2
      vertex -0.457822 6.98501 0
      vertex -0.913683 6.94011 0
    endloop
  endfacet
  facet normal -0.812842 -0.582485 0
    outer loop
      vertex -5.55347 -4.26133 0
      vertex -5.82029 -3.88899 1.2
      vertex -5.82029 -3.88899 0
    endloop
  endfacet
  facet normal -0.812842 -0.582485 0
    outer loop
      vertex -5.82029 -3.88899 1.2
      vertex -5.55347 -4.26133 0
      vertex -5.55347 -4.26133 1.2
    endloop
  endfacet
  facet normal 0 0 -1
    outer loop
      vertex 1.74308 -2.8 0
      vertex 6.27811 -3.09602 0
      vertex 6.06218 -3.5 0
    endloop
  endfacet
  facet normal 0 0 -1
    outer loop
      vertex 1.74308 -2.8 0
      vertex 6.06218 -3.5 0
      vertex 5.82029 -3.88899 0
    endloop
  endfacet
  facet normal 0 0 -1
    outer loop
      vertex 1.74308 -2.8 0
      vertex 5.82029 -3.88899 0
      vertex 5.55347 -4.26133 0
    endloop
  endfacet
  facet normal 0 0 -1
    outer loop
      vertex 1.74308 -2.8 0
      vertex 5.55347 -4.26133 0
      vertex 5.26288 -4.61542 0
    endloop
  endfacet
  facet normal 0 0 -1
    outer loop
      vertex 1.74308 -2.8 0
      vertex 5.26288 -4.61542 0
      vertex 4.94975 -4.94975 0
    endloop
  endfacet
  facet normal 0 0 -1
    outer loop
      vertex 1.74308 -2.8 0
      vertex 4.94975 -4.94975 0
      vertex 4.61542 -5.26288 0
    endloop
  endfacet
  facet normal 0 0 -1
    outer loop
      vertex 1.74308 -2.8 0
      vertex 4.61542 -5.26288 0
      vertex 4.26133 -5.55347 0
    endloop
  endfacet
  facet normal 0 0 -1
    outer loop
      vertex 1.74308 -2.8 0
      vertex 4.26133 -5.55347 0
      vertex 3.88899 -5.82029 0
    endloop
  endfacet
  facet normal 0 0 -1
    outer loop
      vertex 1.74308 -2.8 0
      vertex 3.88899 -5.82029 0
      vertex 3.5 -6.06218 0
    endloop
  endfacet
  facet normal 0 0 -1
    outer loop
      vertex 1.65 -2.85788 0
      vertex 3.5 -6.06218 0
      vertex 3.09602 -6.27811 0
    endloop
  endfacet
  facet normal 0 0 -1
    outer loop
      vertex 1.45955 -2.95968 0
      vertex 3.09602 -6.27811 0
      vertex 2.67878 -6.46716 0
    endloop
  endfacet
  facet normal 0 0 -1
    outer loop
      vertex 1.26285 -3.0488 0
      vertex 2.67878 -6.46716 0
      vertex 2.25008 -6.62851 0
    endloop
  endfacet
  facet normal 0 0 -1
    outer loop
      vertex 1.06075 -3.12487 0
      vertex 2.25008 -6.62851 0
      vertex 1.81173 -6.76148 0
    endloop
  endfacet
  facet normal 0 0 -1
    outer loop
      vertex 6.27811 -3.09602 0
      vertex 1.74308 -2.8 0
      vertex 6.41223 -2.8 0
    endloop
  endfacet
  facet normal 0 0 -1
    outer loop
      vertex 3.5 -6.06218 0
      vertex 1.65 -2.85788 0
      vertex 1.74308 -2.8 0
    endloop
  endfacet
  facet normal 0 0 -1
    outer loop
      vertex 3.09602 -6.27811 0
      vertex 1.45955 -2.95968 0
      vertex 1.65 -2.85788 0
    endloop
  endfacet
  facet normal 0 0 -1
    outer loop
      vertex 0.854102 -3.18755 0
      vertex 1.81173 -6.76148 0
      vertex 1.36563 -6.8655 0
    endloop
  endfacet
  facet normal 0 0 -1
    outer loop
      vertex 2.67878 -6.46716 0
      vertex 1.26285 -3.0488 0
      vertex 1.45955 -2.95968 0
    endloop
  endfacet
  facet normal 0 0 -1
    outer loop
      vertex 2.25008 -6.62851 0
      vertex 1.06075 -3.12487 0
      vertex 1.26285 -3.0488 0
    endloop
  endfacet
  facet normal 0 0 -1
    outer loop
      vertex 0.643798 -3.23659 0
      vertex 1.36563 -6.8655 0
      vertex 0.913683 -6.94011 0
    endloop
  endfacet
  facet normal 0 0 -1
    outer loop
      vertex 1.81173 -6.76148 0
      vertex 0.854102 -3.18755 0
      vertex 1.06075 -3.12487 0
    endloop
  endfacet
  facet normal 0 0 -1
    outer loop
      vertex 1.36563 -6.8655 0
      vertex 0.643798 -3.23659 0
      vertex 0.854102 -3.18755 0
    endloop
  endfacet
  facet normal 0 0 -1
    outer loop
      vertex 0.430736 -3.27177 0
      vertex 0.913683 -6.94011 0
      vertex 0.457822 -6.98501 0
    endloop
  endfacet
  facet normal 0 0 -1
    outer loop
      vertex 0.913683 -6.94011 0
      vertex 0.430736 -3.27177 0
      vertex 0.643798 -3.23659 0
    endloop
  endfacet
  facet normal 0 0 -1
    outer loop
      vertex 0.457822 -6.98501 0
      vertex 0.21583 -3.29293 0
      vertex 0.430736 -3.27177 0
    endloop
  endfacet
  facet normal 0 0 -1
    outer loop
      vertex 0 -7 0
      vertex 0.21583 -3.29293 0
      vertex 0.457822 -6.98501 0
    endloop
  endfacet
  facet normal 0 0 -1
    outer loop
      vertex 0 -7 0
      vertex 0 -3.3 0
      vertex 0.21583 -3.29293 0
    endloop
  endfacet
  facet normal 0 0 -1
    outer loop
      vertex 0 -7 0
      vertex -0.21583 -3.29293 0
      vertex 0 -3.3 0
    endloop
  endfacet
  facet normal 0 0 -1
    outer loop
      vertex -0.457822 -6.98501 0
      vertex -0.21583 -3.29293 0
      vertex 0 -7 0
    endloop
  endfacet
  facet normal -0 0 -1
    outer loop
      vertex -0.21583 -3.29293 0
      vertex -0.457822 -6.98501 0
      vertex -0.430736 -3.27177 0
    endloop
  endfacet
  facet normal 0 0 -1
    outer loop
      vertex -0.913683 -6.94011 0
      vertex -0.430736 -3.27177 0
      vertex -0.457822 -6.98501 0
    endloop
  endfacet
  facet normal -0 0 -1
    outer loop
      vertex -0.430736 -3.27177 0
      vertex -0.913683 -6.94011 0
      vertex -0.643798 -3.23659 0
    endloop
  endfacet
  facet normal 0 0 -1
    outer loop
      vertex -1.36563 -6.8655 0
      vertex -0.643798 -3.23659 0
      vertex -0.913683 -6.94011 0
    endloop
  endfacet
  facet normal -0 0 -1
    outer loop
      vertex -0.643798 -3.23659 0
      vertex -1.36563 -6.8655 0
      vertex -0.854102 -3.18755 0
    endloop
  endfacet
  facet normal 0 0 -1
    outer loop
      vertex -1.81173 -6.76148 0
      vertex -0.854102 -3.18755 0
      vertex -1.36563 -6.8655 0
    endloop
  endfacet
  facet normal -0 0 -1
    outer loop
      vertex -0.854102 -3.18755 0
      vertex -1.81173 -6.76148 0
      vertex -1.06075 -3.12487 0
    endloop
  endfacet
  facet normal 0 0 -1
    outer loop
      vertex -2.25008 -6.62851 0
      vertex -1.06075 -3.12487 0
      vertex -1.81173 -6.76148 0
    endloop
  endfacet
  facet normal -0 0 -1
    outer loop
      vertex -1.06075 -3.12487 0
      vertex -2.25008 -6.62851 0
      vertex -1.26285 -3.0488 0
    endloop
  endfacet
  facet normal 0 0 -1
    outer loop
      vertex -2.67878 -6.46716 0
      vertex -1.26285 -3.0488 0
      vertex -2.25008 -6.62851 0
    endloop
  endfacet
  facet normal -0 0 -1
    outer loop
      vertex -1.26285 -3.0488 0
      vertex -2.67878 -6.46716 0
      vertex -1.45955 -2.95968 0
    endloop
  endfacet
  facet normal 0 0 -1
    outer loop
      vertex -3.09602 -6.27811 0
      vertex -1.45955 -2.95968 0
      vertex -2.67878 -6.46716 0
    endloop
  endfacet
  facet normal -0 0 -1
    outer loop
      vertex -1.45955 -2.95968 0
      vertex -3.09602 -6.27811 0
      vertex -1.65 -2.85788 0
    endloop
  endfacet
  facet normal 0 0 -1
    outer loop
      vertex -3.5 -6.06218 0
      vertex -1.65 -2.85788 0
      vertex -3.09602 -6.27811 0
    endloop
  endfacet
  facet normal -0 0 -1
    outer loop
      vertex -1.65 -2.85788 0
      vertex -3.5 -6.06218 0
      vertex -1.83338 -2.74385 0
    endloop
  endfacet
  facet normal 0 0 -1
    outer loop
      vertex -3.88899 -5.82029 0
      vertex -1.83338 -2.74385 0
      vertex -3.5 -6.06218 0
    endloop
  endfacet
  facet normal -0 0 -1
    outer loop
      vertex -1.83338 -2.74385 0
      vertex -3.88899 -5.82029 0
      vertex -2.00891 -2.61807 0
    endloop
  endfacet
  facet normal 0 0 -1
    outer loop
      vertex -4.26133 -5.55347 0
      vertex -2.00891 -2.61807 0
      vertex -3.88899 -5.82029 0
    endloop
  endfacet
  facet normal -0 0 -1
    outer loop
      vertex -2.00891 -2.61807 0
      vertex -4.26133 -5.55347 0
      vertex -2.17584 -2.48107 0
    endloop
  endfacet
  facet normal 0 0 -1
    outer loop
      vertex -4.61542 -5.26288 0
      vertex -2.17584 -2.48107 0
      vertex -4.26133 -5.55347 0
    endloop
  endfacet
  facet normal -0 0 -1
    outer loop
      vertex -2.17584 -2.48107 0
      vertex -4.61542 -5.26288 0
      vertex -2.33345 -2.33345 0
    endloop
  endfacet
  facet normal 0 0 -1
    outer loop
      vertex -4.94975 -4.94975 0
      vertex -2.33345 -2.33345 0
      vertex -4.61542 -5.26288 0
    endloop
  endfacet
  facet normal -0 0 -1
    outer loop
      vertex -2.33345 -2.33345 0
      vertex -4.94975 -4.94975 0
      vertex -2.48107 -2.17584 0
    endloop
  endfacet
  facet normal 0 0 -1
    outer loop
      vertex -5.26288 -4.61542 0
      vertex -2.48107 -2.17584 0
      vertex -4.94975 -4.94975 0
    endloop
  endfacet
  facet normal -0 0 -1
    outer loop
      vertex -2.48107 -2.17584 0
      vertex -5.26288 -4.61542 0
      vertex -2.61807 -2.00891 0
    endloop
  endfacet
  facet normal 0 0 -1
    outer loop
      vertex -5.55347 -4.26133 0
      vertex -2.61807 -2.00891 0
      vertex -5.26288 -4.61542 0
    endloop
  endfacet
  facet normal -0 0 -1
    outer loop
      vertex -2.61807 -2.00891 0
      vertex -5.55347 -4.26133 0
      vertex -2.74385 -1.83338 0
    endloop
  endfacet
  facet normal 0 0 -1
    outer loop
      vertex -5.82029 -3.88899 0
      vertex -2.74385 -1.83338 0
      vertex -5.55347 -4.26133 0
    endloop
  endfacet
  facet normal -0 0 -1
    outer loop
      vertex -2.74385 -1.83338 0
      vertex -5.82029 -3.88899 0
      vertex -2.85788 -1.65 0
    endloop
  endfacet
  facet normal 0 0 -1
    outer loop
      vertex -6.06218 -3.5 0
      vertex -2.85788 -1.65 0
      vertex -5.82029 -3.88899 0
    endloop
  endfacet
  facet normal 0 0 -1
    outer loop
      vertex 1.74308 2.8 0
      vertex 6.27811 3.09602 0
      vertex 6.41223 2.8 0
    endloop
  endfacet
  facet normal -0 0 -1
    outer loop
      vertex 6.27811 3.09602 0
      vertex 1.74308 2.8 0
      vertex 6.06218 3.5 0
    endloop
  endfacet
  facet normal -0 0 -1
    outer loop
      vertex 6.06218 3.5 0
      vertex 1.74308 2.8 0
      vertex 5.82029 3.88899 0
    endloop
  endfacet
  facet normal -0 0 -1
    outer loop
      vertex 5.82029 3.88899 0
      vertex 1.74308 2.8 0
      vertex 5.55347 4.26133 0
    endloop
  endfacet
  facet normal -0 0 -1
    outer loop
      vertex 5.55347 4.26133 0
      vertex 1.74308 2.8 0
      vertex 5.26288 4.61542 0
    endloop
  endfacet
  facet normal -0 0 -1
    outer loop
      vertex 5.26288 4.61542 0
      vertex 1.74308 2.8 0
      vertex 4.94975 4.94975 0
    endloop
  endfacet
  facet normal -0 0 -1
    outer loop
      vertex 4.94975 4.94975 0
      vertex 1.74308 2.8 0
      vertex 4.61542 5.26288 0
    endloop
  endfacet
  facet normal -0 0 -1
    outer loop
      vertex 4.61542 5.26288 0
      vertex 1.74308 2.8 0
      vertex 4.26133 5.55347 0
    endloop
  endfacet
  facet normal -0 0 -1
    outer loop
      vertex 4.26133 5.55347 0
      vertex 1.74308 2.8 0
      vertex 3.88899 5.82029 0
    endloop
  endfacet
  facet normal -0 0 -1
    outer loop
      vertex 3.88899 5.82029 0
      vertex 1.74308 2.8 0
      vertex 3.5 6.06218 0
    endloop
  endfacet
  facet normal 0 0 -1
    outer loop
      vertex 1.65 2.85788 0
      vertex 3.5 6.06218 0
      vertex 1.74308 2.8 0
    endloop
  endfacet
  facet normal -0 0 -1
    outer loop
      vertex 3.5 6.06218 0
      vertex 1.65 2.85788 0
      vertex 3.09602 6.27811 0
    endloop
  endfacet
  facet normal 0 0 -1
    outer loop
      vertex 1.45955 2.95968 0
      vertex 3.09602 6.27811 0
      vertex 1.65 2.85788 0
    endloop
  endfacet
  facet normal -0 0 -1
    outer loop
      vertex 3.09602 6.27811 0
      vertex 1.45955 2.95968 0
      vertex 2.67878 6.46716 0
    endloop
  endfacet
  facet normal 0 0 -1
    outer loop
      vertex 1.26285 3.0488 0
      vertex 2.67878 6.46716 0
      vertex 1.45955 2.95968 0
    endloop
  endfacet
  facet normal -0 0 -1
    outer loop
      vertex 2.67878 6.46716 0
      vertex 1.26285 3.0488 0
      vertex 2.25008 6.62851 0
    endloop
  endfacet
  facet normal 0 0 -1
    outer loop
      vertex 1.06075 3.12487 0
      vertex 2.25008 6.62851 0
      vertex 1.26285 3.0488 0
    endloop
  endfacet
  facet normal -0 0 -1
    outer loop
      vertex 2.25008 6.62851 0
      vertex 1.06075 3.12487 0
      vertex 1.81173 6.76148 0
    endloop
  endfacet
  facet normal 0 0 -1
    outer loop
      vertex 0.854102 3.18755 0
      vertex 1.81173 6.76148 0
      vertex 1.06075 3.12487 0
    endloop
  endfacet
  facet normal -0 0 -1
    outer loop
      vertex 1.81173 6.76148 0
      vertex 0.854102 3.18755 0
      vertex 1.36563 6.8655 0
    endloop
  endfacet
  facet normal 0 0 -1
    outer loop
      vertex 0.643798 3.23659 0
      vertex 1.36563 6.8655 0
      vertex 0.854102 3.18755 0
    endloop
  endfacet
  facet normal -0 0 -1
    outer loop
      vertex 1.36563 6.8655 0
      vertex 0.643798 3.23659 0
      vertex 0.913683 6.94011 0
    endloop
  endfacet
  facet normal 0 0 -1
    outer loop
      vertex 0.430736 3.27177 0
      vertex 0.913683 6.94011 0
      vertex 0.643798 3.23659 0
    endloop
  endfacet
  facet normal -0 0 -1
    outer loop
      vertex 0.913683 6.94011 0
      vertex 0.430736 3.27177 0
      vertex 0.457822 6.98501 0
    endloop
  endfacet
  facet normal 0 0 -1
    outer loop
      vertex 0.21583 3.29293 0
      vertex 0.457822 6.98501 0
      vertex 0.430736 3.27177 0
    endloop
  endfacet
  facet normal 0 0 -1
    outer loop
      vertex 0 3.3 0
      vertex 0.457822 6.98501 0
      vertex 0.21583 3.29293 0
    endloop
  endfacet
  facet normal 0 0 -1
    outer loop
      vertex 0 3.3 0
      vertex 0 7 0
      vertex 0.457822 6.98501 0
    endloop
  endfacet
  facet normal 0 0 -1
    outer loop
      vertex -0.21583 3.29293 0
      vertex 0 7 0
      vertex 0 3.3 0
    endloop
  endfacet
  facet normal 0 0 -1
    outer loop
      vertex -0.457822 6.98501 0
      vertex -0.21583 3.29293 0
      vertex -0.430736 3.27177 0
    endloop
  endfacet
  facet normal 0 0 -1
    outer loop
      vertex -0.21583 3.29293 0
      vertex -0.457822 6.98501 0
      vertex 0 7 0
    endloop
  endfacet
  facet normal 0 0 -1
    outer loop
      vertex -0.913683 6.94011 0
      vertex -0.430736 3.27177 0
      vertex -0.643798 3.23659 0
    endloop
  endfacet
  facet normal 0 0 -1
    outer loop
      vertex -1.36563 6.8655 0
      vertex -0.643798 3.23659 0
      vertex -0.854102 3.18755 0
    endloop
  endfacet
  facet normal 0 0 -1
    outer loop
      vertex -0.430736 3.27177 0
      vertex -0.913683 6.94011 0
      vertex -0.457822 6.98501 0
    endloop
  endfacet
  facet normal 0 0 -1
    outer loop
      vertex -1.81173 6.76148 0
      vertex -0.854102 3.18755 0
      vertex -1.06075 3.12487 0
    endloop
  endfacet
  facet normal 0 0 -1
    outer loop
      vertex -2.25008 6.62851 0
      vertex -1.06075 3.12487 0
      vertex -1.26285 3.0488 0
    endloop
  endfacet
  facet normal 0 0 -1
    outer loop
      vertex -0.643798 3.23659 0
      vertex -1.36563 6.8655 0
      vertex -0.913683 6.94011 0
    endloop
  endfacet
  facet normal 0 0 -1
    outer loop
      vertex -2.67878 6.46716 0
      vertex -1.26285 3.0488 0
      vertex -1.45955 2.95968 0
    endloop
  endfacet
  facet normal 0 0 -1
    outer loop
      vertex -3.09602 6.27811 0
      vertex -1.45955 2.95968 0
      vertex -1.65 2.85788 0
    endloop
  endfacet
  facet normal 0 0 -1
    outer loop
      vertex -0.854102 3.18755 0
      vertex -1.81173 6.76148 0
      vertex -1.36563 6.8655 0
    endloop
  endfacet
  facet normal 0 0 -1
    outer loop
      vertex -3.5 6.06218 0
      vertex -1.65 2.85788 0
      vertex -1.83338 2.74385 0
    endloop
  endfacet
  facet normal 0 0 -1
    outer loop
      vertex -3.88899 5.82029 0
      vertex -1.83338 2.74385 0
      vertex -2.00891 2.61807 0
    endloop
  endfacet
  facet normal 0 0 -1
    outer loop
      vertex -4.26133 5.55347 0
      vertex -2.00891 2.61807 0
      vertex -2.17584 2.48107 0
    endloop
  endfacet
  facet normal 0 0 -1
    outer loop
      vertex -1.06075 3.12487 0
      vertex -2.25008 6.62851 0
      vertex -1.81173 6.76148 0
    endloop
  endfacet
  facet normal 0 0 -1
    outer loop
      vertex -4.61542 5.26288 0
      vertex -2.17584 2.48107 0
      vertex -2.33345 2.33345 0
    endloop
  endfacet
  facet normal 0 0 -1
    outer loop
      vertex -4.94975 4.94975 0
      vertex -2.33345 2.33345 0
      vertex -2.48107 2.17584 0
    endloop
  endfacet
  facet normal 0 0 -1
    outer loop
      vertex -5.26288 4.61542 0
      vertex -2.48107 2.17584 0
      vertex -2.61807 2.00891 0
    endloop
  endfacet
  facet normal 0 0 -1
    outer loop
      vertex -1.26285 3.0488 0
      vertex -2.67878 6.46716 0
      vertex -2.25008 6.62851 0
    endloop
  endfacet
  facet normal 0 0 -1
    outer loop
      vertex -5.55347 4.26133 0
      vertex -2.61807 2.00891 0
      vertex -2.74385 1.83338 0
    endloop
  endfacet
  facet normal 0 0 -1
    outer loop
      vertex -5.82029 3.88899 0
      vertex -2.74385 1.83338 0
      vertex -2.85788 1.65 0
    endloop
  endfacet
  facet normal 0 0 -1
    outer loop
      vertex -6.06218 3.5 0
      vertex -2.85788 1.65 0
      vertex -2.95968 1.45955 0
    endloop
  endfacet
  facet normal 0 0 -1
    outer loop
      vertex -6.27811 3.09602 0
      vertex -2.95968 1.45955 0
      vertex -3.0488 1.26285 0
    endloop
  endfacet
  facet normal 0 0 -1
    outer loop
      vertex -1.45955 2.95968 0
      vertex -3.09602 6.27811 0
      vertex -2.67878 6.46716 0
    endloop
  endfacet
  facet normal 0 0 -1
    outer loop
      vertex -6.46716 2.67878 0
      vertex -3.0488 1.26285 0
      vertex -3.12487 1.06075 0
    endloop
  endfacet
  facet normal 0 0 -1
    outer loop
      vertex -6.62851 2.25008 0
      vertex -3.12487 1.06075 0
      vertex -3.18755 0.854102 0
    endloop
  endfacet
  facet normal 0 0 -1
    outer loop
      vertex -6.76148 1.81173 0
      vertex -3.18755 0.854102 0
      vertex -3.23659 0.643798 0
    endloop
  endfacet
  facet normal 0 0 -1
    outer loop
      vertex -6.8655 1.36563 0
      vertex -3.23659 0.643798 0
      vertex -3.27177 0.430736 0
    endloop
  endfacet
  facet normal 0 0 -1
    outer loop
      vertex -6.94011 0.913683 0
      vertex -3.27177 0.430736 0
      vertex -3.29293 0.21583 0
    endloop
  endfacet
  facet normal 0 0 -1
    outer loop
      vertex -6.98501 0.457822 0
      vertex -3.29293 0.21583 0
      vertex -3.3 0 0
    endloop
  endfacet
  facet normal -0 0 -1
    outer loop
      vertex -2.85788 -1.65 0
      vertex -6.06218 -3.5 0
      vertex -2.95968 -1.45955 0
    endloop
  endfacet
  facet normal 0 0 -1
    outer loop
      vertex -1.65 2.85788 0
      vertex -3.5 6.06218 0
      vertex -3.09602 6.27811 0
    endloop
  endfacet
  facet normal 0 0 -1
    outer loop
      vertex -6.27811 -3.09602 0
      vertex -2.95968 -1.45955 0
      vertex -6.06218 -3.5 0
    endloop
  endfacet
  facet normal 0 0 -1
    outer loop
      vertex -1.83338 2.74385 0
      vertex -3.88899 5.82029 0
      vertex -3.5 6.06218 0
    endloop
  endfacet
  facet normal -0 0 -1
    outer loop
      vertex -2.95968 -1.45955 0
      vertex -6.27811 -3.09602 0
      vertex -3.0488 -1.26285 0
    endloop
  endfacet
  facet normal 0 0 -1
    outer loop
      vertex -2.00891 2.61807 0
      vertex -4.26133 5.55347 0
      vertex -3.88899 5.82029 0
    endloop
  endfacet
  facet normal 0 0 -1
    outer loop
      vertex -6.46716 -2.67878 0
      vertex -3.0488 -1.26285 0
      vertex -6.27811 -3.09602 0
    endloop
  endfacet
  facet normal 0 0 -1
    outer loop
      vertex -2.17584 2.48107 0
      vertex -4.61542 5.26288 0
      vertex -4.26133 5.55347 0
    endloop
  endfacet
  facet normal -0 0 -1
    outer loop
      vertex -3.0488 -1.26285 0
      vertex -6.46716 -2.67878 0
      vertex -3.12487 -1.06075 0
    endloop
  endfacet
  facet normal 0 0 -1
    outer loop
      vertex -2.33345 2.33345 0
      vertex -4.94975 4.94975 0
      vertex -4.61542 5.26288 0
    endloop
  endfacet
  facet normal 0 0 -1
    outer loop
      vertex -6.62851 -2.25008 0
      vertex -3.12487 -1.06075 0
      vertex -6.46716 -2.67878 0
    endloop
  endfacet
  facet normal 0 0 -1
    outer loop
      vertex -2.48107 2.17584 0
      vertex -5.26288 4.61542 0
      vertex -4.94975 4.94975 0
    endloop
  endfacet
  facet normal -0 0 -1
    outer loop
      vertex -3.12487 -1.06075 0
      vertex -6.62851 -2.25008 0
      vertex -3.18755 -0.854102 0
    endloop
  endfacet
  facet normal 0 0 -1
    outer loop
      vertex -2.61807 2.00891 0
      vertex -5.55347 4.26133 0
      vertex -5.26288 4.61542 0
    endloop
  endfacet
  facet normal 0 0 -1
    outer loop
      vertex -6.76148 -1.81173 0
      vertex -3.18755 -0.854102 0
      vertex -6.62851 -2.25008 0
    endloop
  endfacet
  facet normal 0 0 -1
    outer loop
      vertex -2.74385 1.83338 0
      vertex -5.82029 3.88899 0
      vertex -5.55347 4.26133 0
    endloop
  endfacet
  facet normal -0 0 -1
    outer loop
      vertex -3.18755 -0.854102 0
      vertex -6.76148 -1.81173 0
      vertex -3.23659 -0.643798 0
    endloop
  endfacet
  facet normal 0 0 -1
    outer loop
      vertex -2.85788 1.65 0
      vertex -6.06218 3.5 0
      vertex -5.82029 3.88899 0
    endloop
  endfacet
  facet normal 0 0 -1
    outer loop
      vertex -6.8655 -1.36563 0
      vertex -3.23659 -0.643798 0
      vertex -6.76148 -1.81173 0
    endloop
  endfacet
  facet normal 0 0 -1
    outer loop
      vertex -2.95968 1.45955 0
      vertex -6.27811 3.09602 0
      vertex -6.06218 3.5 0
    endloop
  endfacet
  facet normal -0 0 -1
    outer loop
      vertex -3.23659 -0.643798 0
      vertex -6.8655 -1.36563 0
      vertex -3.27177 -0.430736 0
    endloop
  endfacet
  facet normal 0 0 -1
    outer loop
      vertex -3.0488 1.26285 0
      vertex -6.46716 2.67878 0
      vertex -6.27811 3.09602 0
    endloop
  endfacet
  facet normal 0 0 -1
    outer loop
      vertex -6.94011 -0.913683 0
      vertex -3.27177 -0.430736 0
      vertex -6.8655 -1.36563 0
    endloop
  endfacet
  facet normal 0 0 -1
    outer loop
      vertex -3.12487 1.06075 0
      vertex -6.62851 2.25008 0
      vertex -6.46716 2.67878 0
    endloop
  endfacet
  facet normal -0 0 -1
    outer loop
      vertex -3.27177 -0.430736 0
      vertex -6.94011 -0.913683 0
      vertex -3.29293 -0.21583 0
    endloop
  endfacet
  facet normal 0 0 -1
    outer loop
      vertex -3.18755 0.854102 0
      vertex -6.76148 1.81173 0
      vertex -6.62851 2.25008 0
    endloop
  endfacet
  facet normal 0 0 -1
    outer loop
      vertex -6.98501 -0.457822 0
      vertex -3.29293 -0.21583 0
      vertex -6.94011 -0.913683 0
    endloop
  endfacet
  facet normal 0 0 -1
    outer loop
      vertex -3.23659 0.643798 0
      vertex -6.8655 1.36563 0
      vertex -6.76148 1.81173 0
    endloop
  endfacet
  facet normal -0 0 -1
    outer loop
      vertex -3.29293 -0.21583 0
      vertex -6.98501 -0.457822 0
      vertex -3.3 0 0
    endloop
  endfacet
  facet normal 0 0 -1
    outer loop
      vertex -3.27177 0.430736 0
      vertex -6.94011 0.913683 0
      vertex -6.8655 1.36563 0
    endloop
  endfacet
  facet normal 0 0 -1
    outer loop
      vertex -7 0 0
      vertex -3.3 0 0
      vertex -6.98501 -0.457822 0
    endloop
  endfacet
  facet normal 0 0 -1
    outer loop
      vertex -3.29293 0.21583 0
      vertex -6.98501 0.457822 0
      vertex -6.94011 0.913683 0
    endloop
  endfacet
  facet normal 0 0 -1
    outer loop
      vertex -3.3 0 0
      vertex -7 0 0
      vertex -6.98501 0.457822 0
    endloop
  endfacet
  facet normal -0.227085 0.973875 0
    outer loop
      vertex -1.36563 6.8655 0
      vertex -1.81173 6.76148 1.2
      vertex -1.36563 6.8655 1.2
    endloop
  endfacet
  facet normal -0.227085 0.973875 0
    outer loop
      vertex -1.81173 6.76148 1.2
      vertex -1.36563 6.8655 0
      vertex -1.81173 6.76148 0
    endloop
  endfacet
  facet normal 0.352248 0.935907 -0
    outer loop
      vertex 2.67878 6.46716 0
      vertex 2.25008 6.62851 1.2
      vertex 2.67878 6.46716 1.2
    endloop
  endfacet
  facet normal 0.352248 0.935907 0
    outer loop
      vertex 2.25008 6.62851 1.2
      vertex 2.67878 6.46716 0
      vertex 2.25008 6.62851 0
    endloop
  endfacet
  facet normal -0.995184 0.0980206 0
    outer loop
      vertex -6.98501 0.457822 0
      vertex -6.94011 0.913683 1.2
      vertex -6.94011 0.913683 0
    endloop
  endfacet
  facet normal -0.995184 0.0980206 0
    outer loop
      vertex -6.94011 0.913683 1.2
      vertex -6.98501 0.457822 0
      vertex -6.98501 0.457822 1.2
    endloop
  endfacet
  facet normal -0.935907 0.352248 0
    outer loop
      vertex -6.62851 2.25008 0
      vertex -6.46716 2.67878 1.2
      vertex -6.46716 2.67878 0
    endloop
  endfacet
  facet normal -0.935907 0.352248 0
    outer loop
      vertex -6.46716 2.67878 1.2
      vertex -6.62851 2.25008 0
      vertex -6.62851 2.25008 1.2
    endloop
  endfacet
  facet normal -0.773015 0.634388 0
    outer loop
      vertex -5.55347 4.26133 0
      vertex -5.26288 4.61542 1.2
      vertex -5.26288 4.61542 0
    endloop
  endfacet
  facet normal -0.773015 0.634388 0
    outer loop
      vertex -5.26288 4.61542 1.2
      vertex -5.55347 4.26133 0
      vertex -5.55347 4.26133 1.2
    endloop
  endfacet
  facet normal -0.812842 0.582485 0
    outer loop
      vertex -5.82029 3.88899 0
      vertex -5.55347 4.26133 1.2
      vertex -5.55347 4.26133 0
    endloop
  endfacet
  facet normal -0.812842 0.582485 0
    outer loop
      vertex -5.55347 4.26133 1.2
      vertex -5.82029 3.88899 0
      vertex -5.82029 3.88899 1.2
    endloop
  endfacet
  facet normal -0.973875 -0.227085 0
    outer loop
      vertex -6.76148 -1.81173 0
      vertex -6.8655 -1.36563 1.2
      vertex -6.8655 -1.36563 0
    endloop
  endfacet
  facet normal -0.973875 -0.227085 0
    outer loop
      vertex -6.8655 -1.36563 1.2
      vertex -6.76148 -1.81173 0
      vertex -6.76148 -1.81173 1.2
    endloop
  endfacet
  facet normal -0.412709 0.910863 0
    outer loop
      vertex -2.67878 6.46716 0
      vertex -3.09602 6.27811 1.2
      vertex -2.67878 6.46716 1.2
    endloop
  endfacet
  facet normal -0.412709 0.910863 0
    outer loop
      vertex -3.09602 6.27811 1.2
      vertex -2.67878 6.46716 0
      vertex -3.09602 6.27811 0
    endloop
  endfacet
  facet normal -0.773015 -0.634388 0
    outer loop
      vertex -5.26288 -4.61542 0
      vertex -5.55347 -4.26133 1.2
      vertex -5.55347 -4.26133 0
    endloop
  endfacet
  facet normal -0.773015 -0.634388 0
    outer loop
      vertex -5.55347 -4.26133 1.2
      vertex -5.26288 -4.61542 0
      vertex -5.26288 -4.61542 1.2
    endloop
  endfacet
  facet normal -0.956942 -0.290281 0
    outer loop
      vertex -6.62851 -2.25008 0
      vertex -6.76148 -1.81173 1.2
      vertex -6.76148 -1.81173 0
    endloop
  endfacet
  facet normal -0.956942 -0.290281 0
    outer loop
      vertex -6.76148 -1.81173 1.2
      vertex -6.62851 -2.25008 0
      vertex -6.62851 -2.25008 1.2
    endloop
  endfacet
  facet normal -0.910863 0.412709 0
    outer loop
      vertex -6.46716 2.67878 0
      vertex -6.27811 3.09602 1.2
      vertex -6.27811 3.09602 0
    endloop
  endfacet
  facet normal -0.910863 0.412709 0
    outer loop
      vertex -6.27811 3.09602 1.2
      vertex -6.46716 2.67878 0
      vertex -6.46716 2.67878 1.2
    endloop
  endfacet
  facet normal -0.290281 0.956942 0
    outer loop
      vertex -1.81173 6.76148 0
      vertex -2.25008 6.62851 1.2
      vertex -1.81173 6.76148 1.2
    endloop
  endfacet
  facet normal -0.290281 0.956942 0
    outer loop
      vertex -2.25008 6.62851 1.2
      vertex -1.81173 6.76148 0
      vertex -2.25008 6.62851 0
    endloop
  endfacet
  facet normal 0.773015 -0.634388 0
    outer loop
      vertex 5.26288 -4.61542 1.2
      vertex 5.55347 -4.26133 0
      vertex 5.55347 -4.26133 1.2
    endloop
  endfacet
  facet normal 0.773015 -0.634388 0
    outer loop
      vertex 5.55347 -4.26133 0
      vertex 5.26288 -4.61542 1.2
      vertex 5.26288 -4.61542 0
    endloop
  endfacet
  facet normal -0.582485 0.812842 0
    outer loop
      vertex -3.88899 5.82029 0
      vertex -4.26133 5.55347 1.2
      vertex -3.88899 5.82029 1.2
    endloop
  endfacet
  facet normal -0.582485 0.812842 0
    outer loop
      vertex -4.26133 5.55347 1.2
      vertex -3.88899 5.82029 0
      vertex -4.26133 5.55347 0
    endloop
  endfacet
  facet normal -0.412709 -0.910863 0
    outer loop
      vertex -3.09602 -6.27811 0
      vertex -2.67878 -6.46716 1.2
      vertex -3.09602 -6.27811 1.2
    endloop
  endfacet
  facet normal -0.412709 -0.910863 -0
    outer loop
      vertex -2.67878 -6.46716 1.2
      vertex -3.09602 -6.27811 0
      vertex -2.67878 -6.46716 0
    endloop
  endfacet
  facet normal -0.634388 0.773015 0
    outer loop
      vertex -4.26133 5.55347 0
      vertex -4.61542 5.26288 1.2
      vertex -4.26133 5.55347 1.2
    endloop
  endfacet
  facet normal -0.634388 0.773015 0
    outer loop
      vertex -4.61542 5.26288 1.2
      vertex -4.26133 5.55347 0
      vertex -4.61542 5.26288 0
    endloop
  endfacet
  facet normal -0.956942 0.290281 0
    outer loop
      vertex -6.76148 1.81173 0
      vertex -6.62851 2.25008 1.2
      vertex -6.62851 2.25008 0
    endloop
  endfacet
  facet normal -0.956942 0.290281 0
    outer loop
      vertex -6.62851 2.25008 1.2
      vertex -6.76148 1.81173 0
      vertex -6.76148 1.81173 1.2
    endloop
  endfacet
  facet normal -0.986646 0.162881 0
    outer loop
      vertex -6.94011 0.913683 0
      vertex -6.8655 1.36563 1.2
      vertex -6.8655 1.36563 0
    endloop
  endfacet
  facet normal -0.986646 0.162881 0
    outer loop
      vertex -6.8655 1.36563 1.2
      vertex -6.94011 0.913683 0
      vertex -6.94011 0.913683 1.2
    endloop
  endfacet
  facet normal -0.995184 -0.0980206 0
    outer loop
      vertex -6.94011 -0.913683 0
      vertex -6.98501 -0.457822 1.2
      vertex -6.98501 -0.457822 0
    endloop
  endfacet
  facet normal -0.995184 -0.0980206 0
    outer loop
      vertex -6.98501 -0.457822 1.2
      vertex -6.94011 -0.913683 0
      vertex -6.94011 -0.913683 1.2
    endloop
  endfacet
  facet normal -0.290281 -0.956942 0
    outer loop
      vertex -2.25008 -6.62851 0
      vertex -1.81173 -6.76148 1.2
      vertex -2.25008 -6.62851 1.2
    endloop
  endfacet
  facet normal -0.290281 -0.956942 -0
    outer loop
      vertex -1.81173 -6.76148 1.2
      vertex -2.25008 -6.62851 0
      vertex -1.81173 -6.76148 0
    endloop
  endfacet
  facet normal -0.683587 -0.729869 0
    outer loop
      vertex -4.94975 -4.94975 0
      vertex -4.61542 -5.26288 1.2
      vertex -4.94975 -4.94975 1.2
    endloop
  endfacet
  facet normal -0.683587 -0.729869 -0
    outer loop
      vertex -4.61542 -5.26288 1.2
      vertex -4.94975 -4.94975 0
      vertex -4.61542 -5.26288 0
    endloop
  endfacet
  facet normal -0.999464 -0.0327244 0
    outer loop
      vertex -6.98501 -0.457822 0
      vertex -7 0 1.2
      vertex -7 0 0
    endloop
  endfacet
  facet normal -0.999464 -0.0327244 0
    outer loop
      vertex -7 0 1.2
      vertex -6.98501 -0.457822 0
      vertex -6.98501 -0.457822 1.2
    endloop
  endfacet
  facet normal -0.162881 -0.986646 0
    outer loop
      vertex -1.36563 -6.8655 0
      vertex -0.913683 -6.94011 1.2
      vertex -1.36563 -6.8655 1.2
    endloop
  endfacet
  facet normal -0.162881 -0.986646 -0
    outer loop
      vertex -0.913683 -6.94011 1.2
      vertex -1.36563 -6.8655 0
      vertex -0.913683 -6.94011 0
    endloop
  endfacet
  facet normal -0.0980206 -0.995184 0
    outer loop
      vertex -0.913683 -6.94011 0
      vertex -0.457822 -6.98501 1.2
      vertex -0.913683 -6.94011 1.2
    endloop
  endfacet
  facet normal -0.0980206 -0.995184 -0
    outer loop
      vertex -0.457822 -6.98501 1.2
      vertex -0.913683 -6.94011 0
      vertex -0.457822 -6.98501 0
    endloop
  endfacet
  facet normal -0.471394 0.881923 0
    outer loop
      vertex -3.09602 6.27811 0
      vertex -3.5 6.06218 1.2
      vertex -3.09602 6.27811 1.2
    endloop
  endfacet
  facet normal -0.471394 0.881923 0
    outer loop
      vertex -3.5 6.06218 1.2
      vertex -3.09602 6.27811 0
      vertex -3.5 6.06218 0
    endloop
  endfacet
  facet normal -0.881923 0.471394 0
    outer loop
      vertex -6.27811 3.09602 0
      vertex -6.06218 3.5 1.2
      vertex -6.06218 3.5 0
    endloop
  endfacet
  facet normal -0.881923 0.471394 0
    outer loop
      vertex -6.06218 3.5 1.2
      vertex -6.27811 3.09602 0
      vertex -6.27811 3.09602 1.2
    endloop
  endfacet
  facet normal 0.91087 -0.412694 0
    outer loop
      vertex 6.27811 -3.09602 1.2
      vertex 6.41223 -2.8 0
      vertex 6.41223 -2.8 1.2
    endloop
  endfacet
  facet normal 0.91087 -0.412694 0
    outer loop
      vertex 6.41223 -2.8 0
      vertex 6.27811 -3.09602 1.2
      vertex 6.27811 -3.09602 0
    endloop
  endfacet
  facet normal 0.290281 0.956942 -0
    outer loop
      vertex 2.25008 6.62851 0
      vertex 1.81173 6.76148 1.2
      vertex 2.25008 6.62851 1.2
    endloop
  endfacet
  facet normal 0.290281 0.956942 0
    outer loop
      vertex 1.81173 6.76148 1.2
      vertex 2.25008 6.62851 0
      vertex 1.81173 6.76148 0
    endloop
  endfacet
  facet normal -0.0327244 -0.999464 0
    outer loop
      vertex -0.457822 -6.98501 0
      vertex 0 -7 1.2
      vertex -0.457822 -6.98501 1.2
    endloop
  endfacet
  facet normal -0.0327244 -0.999464 -0
    outer loop
      vertex 0 -7 1.2
      vertex -0.457822 -6.98501 0
      vertex 0 -7 0
    endloop
  endfacet
  facet normal -0.634388 -0.773015 0
    outer loop
      vertex -4.61542 -5.26288 0
      vertex -4.26133 -5.55347 1.2
      vertex -4.61542 -5.26288 1.2
    endloop
  endfacet
  facet normal -0.634388 -0.773015 -0
    outer loop
      vertex -4.26133 -5.55347 1.2
      vertex -4.61542 -5.26288 0
      vertex -4.26133 -5.55347 0
    endloop
  endfacet
  facet normal -0.849202 0.528069 0
    outer loop
      vertex -6.06218 3.5 0
      vertex -5.82029 3.88899 1.2
      vertex -5.82029 3.88899 0
    endloop
  endfacet
  facet normal -0.849202 0.528069 0
    outer loop
      vertex -5.82029 3.88899 1.2
      vertex -6.06218 3.5 0
      vertex -6.06218 3.5 1.2
    endloop
  endfacet
  facet normal 0.683587 -0.729869 0
    outer loop
      vertex 4.61542 -5.26288 0
      vertex 4.94975 -4.94975 1.2
      vertex 4.61542 -5.26288 1.2
    endloop
  endfacet
  facet normal 0.683587 -0.729869 0
    outer loop
      vertex 4.94975 -4.94975 1.2
      vertex 4.61542 -5.26288 0
      vertex 4.94975 -4.94975 0
    endloop
  endfacet
  facet normal -0.999464 0.0327244 0
    outer loop
      vertex -7 0 0
      vertex -6.98501 0.457822 1.2
      vertex -6.98501 0.457822 0
    endloop
  endfacet
  facet normal -0.999464 0.0327244 0
    outer loop
      vertex -6.98501 0.457822 1.2
      vertex -7 0 0
      vertex -7 0 1.2
    endloop
  endfacet
  facet normal 0.729869 -0.683587 0
    outer loop
      vertex 4.94975 -4.94975 1.2
      vertex 5.26288 -4.61542 0
      vertex 5.26288 -4.61542 1.2
    endloop
  endfacet
  facet normal 0.729869 -0.683587 0
    outer loop
      vertex 5.26288 -4.61542 0
      vertex 4.94975 -4.94975 1.2
      vertex 4.94975 -4.94975 0
    endloop
  endfacet
  facet normal -0.582485 -0.812842 0
    outer loop
      vertex -4.26133 -5.55347 0
      vertex -3.88899 -5.82029 1.2
      vertex -4.26133 -5.55347 1.2
    endloop
  endfacet
  facet normal -0.582485 -0.812842 -0
    outer loop
      vertex -3.88899 -5.82029 1.2
      vertex -4.26133 -5.55347 0
      vertex -3.88899 -5.82029 0
    endloop
  endfacet
  facet normal -0.471405 -0.881917 0
    outer loop
      vertex 1.45955 2.95968 0
      vertex 1.65 2.85788 1.2
      vertex 1.45955 2.95968 1.2
    endloop
  endfacet
  facet normal -0.471405 -0.881917 -0
    outer loop
      vertex 1.65 2.85788 1.2
      vertex 1.45955 2.95968 0
      vertex 1.65 2.85788 0
    endloop
  endfacet
  facet normal -0.471405 0.881917 0
    outer loop
      vertex 1.65 -2.85788 0
      vertex 1.45955 -2.95968 1.2
      vertex 1.65 -2.85788 1.2
    endloop
  endfacet
  facet normal -0.471405 0.881917 0
    outer loop
      vertex 1.45955 -2.95968 1.2
      vertex 1.65 -2.85788 0
      vertex 1.45955 -2.95968 0
    endloop
  endfacet
  facet normal -0.0979878 -0.995188 0
    outer loop
      vertex 0.21583 3.29293 0
      vertex 0.430736 3.27177 1.2
      vertex 0.21583 3.29293 1.2
    endloop
  endfacet
  facet normal -0.0979878 -0.995188 -0
    outer loop
      vertex 0.430736 3.27177 1.2
      vertex 0.21583 3.29293 0
      vertex 0.430736 3.27177 0
    endloop
  endfacet
  facet normal -0.528062 0.849206 0
    outer loop
      vertex 1.74308 -2.8 0
      vertex 1.65 -2.85788 1.2
      vertex 1.74308 -2.8 1.2
    endloop
  endfacet
  facet normal -0.528062 0.849206 0
    outer loop
      vertex 1.65 -2.85788 1.2
      vertex 1.74308 -2.8 0
      vertex 1.65 -2.85788 0
    endloop
  endfacet
  facet normal 0.634405 0.773001 -0
    outer loop
      vertex -2.00891 -2.61807 0
      vertex -2.17584 -2.48107 1.2
      vertex -2.00891 -2.61807 1.2
    endloop
  endfacet
  facet normal 0.634405 0.773001 0
    outer loop
      vertex -2.17584 -2.48107 1.2
      vertex -2.00891 -2.61807 0
      vertex -2.17584 -2.48107 0
    endloop
  endfacet
  facet normal 0.973873 -0.227094 0
    outer loop
      vertex -3.23659 0.643798 1.2
      vertex -3.18755 0.854102 0
      vertex -3.18755 0.854102 1.2
    endloop
  endfacet
  facet normal 0.973873 -0.227094 0
    outer loop
      vertex -3.18755 0.854102 0
      vertex -3.23659 0.643798 1.2
      vertex -3.23659 0.643798 0
    endloop
  endfacet
  facet normal 0.956948 0.290259 0
    outer loop
      vertex -3.12487 -1.06075 1.2
      vertex -3.18755 -0.854102 0
      vertex -3.18755 -0.854102 1.2
    endloop
  endfacet
  facet normal 0.956948 0.290259 0
    outer loop
      vertex -3.18755 -0.854102 0
      vertex -3.12487 -1.06075 1.2
      vertex -3.12487 -1.06075 0
    endloop
  endfacet
  facet normal 0.35227 -0.935898 0
    outer loop
      vertex -1.26285 3.0488 0
      vertex -1.06075 3.12487 1.2
      vertex -1.26285 3.0488 1.2
    endloop
  endfacet
  facet normal 0.35227 -0.935898 0
    outer loop
      vertex -1.06075 3.12487 1.2
      vertex -1.26285 3.0488 0
      vertex -1.06075 3.12487 0
    endloop
  endfacet
  facet normal 0.582468 -0.812853 0
    outer loop
      vertex -2.00891 2.61807 0
      vertex -1.83338 2.74385 1.2
      vertex -2.00891 2.61807 1.2
    endloop
  endfacet
  facet normal 0.582468 -0.812853 0
    outer loop
      vertex -1.83338 2.74385 1.2
      vertex -2.00891 2.61807 0
      vertex -1.83338 2.74385 0
    endloop
  endfacet
  facet normal 0.683598 0.729859 -0
    outer loop
      vertex -2.17584 -2.48107 0
      vertex -2.33345 -2.33345 1.2
      vertex -2.17584 -2.48107 1.2
    endloop
  endfacet
  facet normal 0.683598 0.729859 0
    outer loop
      vertex -2.33345 -2.33345 1.2
      vertex -2.17584 -2.48107 0
      vertex -2.33345 -2.33345 0
    endloop
  endfacet
  facet normal -0.0979878 0.995188 0
    outer loop
      vertex 0.430736 -3.27177 0
      vertex 0.21583 -3.29293 1.2
      vertex 0.430736 -3.27177 1.2
    endloop
  endfacet
  facet normal -0.0979878 0.995188 0
    outer loop
      vertex 0.21583 -3.29293 1.2
      vertex 0.430736 -3.27177 0
      vertex 0.21583 -3.29293 0
    endloop
  endfacet
  facet normal 0.683598 -0.729859 0
    outer loop
      vertex -2.33345 2.33345 0
      vertex -2.17584 2.48107 1.2
      vertex -2.33345 2.33345 1.2
    endloop
  endfacet
  facet normal 0.683598 -0.729859 0
    outer loop
      vertex -2.17584 2.48107 1.2
      vertex -2.33345 2.33345 0
      vertex -2.17584 2.48107 0
    endloop
  endfacet
  facet normal 0.986641 -0.16291 0
    outer loop
      vertex -3.27177 0.430736 1.2
      vertex -3.23659 0.643798 0
      vertex -3.23659 0.643798 1.2
    endloop
  endfacet
  facet normal 0.986641 -0.16291 0
    outer loop
      vertex -3.23659 0.643798 0
      vertex -3.27177 0.430736 1.2
      vertex -3.27177 0.430736 0
    endloop
  endfacet
  facet normal 0.91087 -0.412693 0
    outer loop
      vertex -3.0488 1.26285 1.2
      vertex -2.95968 1.45955 0
      vertex -2.95968 1.45955 1.2
    endloop
  endfacet
  facet normal 0.91087 -0.412693 0
    outer loop
      vertex -2.95968 1.45955 0
      vertex -3.0488 1.26285 1.2
      vertex -3.0488 1.26285 0
    endloop
  endfacet
  facet normal 0.0979878 0.995188 -0
    outer loop
      vertex -0.21583 -3.29293 0
      vertex -0.430736 -3.27177 1.2
      vertex -0.21583 -3.29293 1.2
    endloop
  endfacet
  facet normal 0.0979878 0.995188 0
    outer loop
      vertex -0.430736 -3.27177 1.2
      vertex -0.21583 -3.29293 0
      vertex -0.430736 -3.27177 0
    endloop
  endfacet
  facet normal 0.812853 0.582468 0
    outer loop
      vertex -2.61807 -2.00891 1.2
      vertex -2.74385 -1.83338 0
      vertex -2.74385 -1.83338 1.2
    endloop
  endfacet
  facet normal 0.812853 0.582468 0
    outer loop
      vertex -2.74385 -1.83338 0
      vertex -2.61807 -2.00891 1.2
      vertex -2.61807 -2.00891 0
    endloop
  endfacet
  facet normal 0.729859 0.683598 0
    outer loop
      vertex -2.33345 -2.33345 1.2
      vertex -2.48107 -2.17584 0
      vertex -2.48107 -2.17584 1.2
    endloop
  endfacet
  facet normal 0.729859 0.683598 0
    outer loop
      vertex -2.48107 -2.17584 0
      vertex -2.33345 -2.33345 1.2
      vertex -2.33345 -2.33345 0
    endloop
  endfacet
  facet normal 0.935898 -0.35227 0
    outer loop
      vertex -3.12487 1.06075 1.2
      vertex -3.0488 1.26285 0
      vertex -3.0488 1.26285 1.2
    endloop
  endfacet
  facet normal 0.935898 -0.35227 0
    outer loop
      vertex -3.0488 1.26285 0
      vertex -3.12487 1.06075 1.2
      vertex -3.12487 1.06075 0
    endloop
  endfacet
  facet normal 0.0327397 -0.999464 0
    outer loop
      vertex -0.21583 3.29293 0
      vertex 0 3.3 1.2
      vertex -0.21583 3.29293 1.2
    endloop
  endfacet
  facet normal 0.0327397 -0.999464 0
    outer loop
      vertex 0 3.3 1.2
      vertex -0.21583 3.29293 0
      vertex 0 3.3 0
    endloop
  endfacet
  facet normal -0.528062 -0.849206 0
    outer loop
      vertex 1.65 2.85788 0
      vertex 1.74308 2.8 1.2
      vertex 1.65 2.85788 1.2
    endloop
  endfacet
  facet normal -0.528062 -0.849206 -0
    outer loop
      vertex 1.74308 2.8 1.2
      vertex 1.65 2.85788 0
      vertex 1.74308 2.8 0
    endloop
  endfacet
  facet normal -0.35227 -0.935898 0
    outer loop
      vertex 1.06075 3.12487 0
      vertex 1.26285 3.0488 1.2
      vertex 1.06075 3.12487 1.2
    endloop
  endfacet
  facet normal -0.35227 -0.935898 -0
    outer loop
      vertex 1.26285 3.0488 1.2
      vertex 1.06075 3.12487 0
      vertex 1.26285 3.0488 0
    endloop
  endfacet
  facet normal 0.528058 -0.849208 0
    outer loop
      vertex -1.83338 2.74385 0
      vertex -1.65 2.85788 1.2
      vertex -1.83338 2.74385 1.2
    endloop
  endfacet
  facet normal 0.528058 -0.849208 0
    outer loop
      vertex -1.65 2.85788 1.2
      vertex -1.83338 2.74385 0
      vertex -1.65 2.85788 0
    endloop
  endfacet
  facet normal 0.0327397 0.999464 -0
    outer loop
      vertex 0 -3.3 0
      vertex -0.21583 -3.29293 1.2
      vertex 0 -3.3 1.2
    endloop
  endfacet
  facet normal 0.0327397 0.999464 0
    outer loop
      vertex -0.21583 -3.29293 1.2
      vertex 0 -3.3 0
      vertex -0.21583 -3.29293 0
    endloop
  endfacet
  facet normal 0.227094 0.973873 -0
    outer loop
      vertex -0.643798 -3.23659 0
      vertex -0.854102 -3.18755 1.2
      vertex -0.643798 -3.23659 1.2
    endloop
  endfacet
  facet normal 0.227094 0.973873 0
    outer loop
      vertex -0.854102 -3.18755 1.2
      vertex -0.643798 -3.23659 0
      vertex -0.854102 -3.18755 0
    endloop
  endfacet
  facet normal 0.528058 0.849208 -0
    outer loop
      vertex -1.65 -2.85788 0
      vertex -1.83338 -2.74385 1.2
      vertex -1.65 -2.85788 1.2
    endloop
  endfacet
  facet normal 0.528058 0.849208 0
    outer loop
      vertex -1.83338 -2.74385 1.2
      vertex -1.65 -2.85788 0
      vertex -1.83338 -2.74385 0
    endloop
  endfacet
  facet normal 0.16291 0.986641 -0
    outer loop
      vertex -0.430736 -3.27177 0
      vertex -0.643798 -3.23659 1.2
      vertex -0.430736 -3.27177 1.2
    endloop
  endfacet
  facet normal 0.16291 0.986641 0
    outer loop
      vertex -0.643798 -3.23659 1.2
      vertex -0.430736 -3.27177 0
      vertex -0.643798 -3.23659 0
    endloop
  endfacet
  facet normal 0.227094 -0.973873 0
    outer loop
      vertex -0.854102 3.18755 0
      vertex -0.643798 3.23659 1.2
      vertex -0.854102 3.18755 1.2
    endloop
  endfacet
  facet normal 0.227094 -0.973873 0
    outer loop
      vertex -0.643798 3.23659 1.2
      vertex -0.854102 3.18755 0
      vertex -0.643798 3.23659 0
    endloop
  endfacet
  facet normal 0.16291 -0.986641 0
    outer loop
      vertex -0.643798 3.23659 0
      vertex -0.430736 3.27177 1.2
      vertex -0.643798 3.23659 1.2
    endloop
  endfacet
  facet normal 0.16291 -0.986641 0
    outer loop
      vertex -0.430736 3.27177 1.2
      vertex -0.643798 3.23659 0
      vertex -0.430736 3.27177 0
    endloop
  endfacet
  facet normal -0.227094 0.973873 0
    outer loop
      vertex 0.854102 -3.18755 0
      vertex 0.643798 -3.23659 1.2
      vertex 0.854102 -3.18755 1.2
    endloop
  endfacet
  facet normal -0.227094 0.973873 0
    outer loop
      vertex 0.643798 -3.23659 1.2
      vertex 0.854102 -3.18755 0
      vertex 0.643798 -3.23659 0
    endloop
  endfacet
  facet normal -0.16291 -0.986641 0
    outer loop
      vertex 0.430736 3.27177 0
      vertex 0.643798 3.23659 1.2
      vertex 0.430736 3.27177 1.2
    endloop
  endfacet
  facet normal -0.16291 -0.986641 -0
    outer loop
      vertex 0.643798 3.23659 1.2
      vertex 0.430736 3.27177 0
      vertex 0.643798 3.23659 0
    endloop
  endfacet
  facet normal -0.35227 0.935898 0
    outer loop
      vertex 1.26285 -3.0488 0
      vertex 1.06075 -3.12487 1.2
      vertex 1.26285 -3.0488 1.2
    endloop
  endfacet
  facet normal -0.35227 0.935898 0
    outer loop
      vertex 1.06075 -3.12487 1.2
      vertex 1.26285 -3.0488 0
      vertex 1.06075 -3.12487 0
    endloop
  endfacet
  facet normal -0.290259 0.956948 0
    outer loop
      vertex 1.06075 -3.12487 0
      vertex 0.854102 -3.18755 1.2
      vertex 1.06075 -3.12487 1.2
    endloop
  endfacet
  facet normal -0.290259 0.956948 0
    outer loop
      vertex 0.854102 -3.18755 1.2
      vertex 1.06075 -3.12487 0
      vertex 0.854102 -3.18755 0
    endloop
  endfacet
  facet normal 0.0979878 -0.995188 0
    outer loop
      vertex -0.430736 3.27177 0
      vertex -0.21583 3.29293 1.2
      vertex -0.430736 3.27177 1.2
    endloop
  endfacet
  facet normal 0.0979878 -0.995188 0
    outer loop
      vertex -0.21583 3.29293 1.2
      vertex -0.430736 3.27177 0
      vertex -0.21583 3.29293 0
    endloop
  endfacet
  facet normal 0.849208 -0.528058 0
    outer loop
      vertex -2.85788 1.65 1.2
      vertex -2.74385 1.83338 0
      vertex -2.74385 1.83338 1.2
    endloop
  endfacet
  facet normal 0.849208 -0.528058 0
    outer loop
      vertex -2.74385 1.83338 0
      vertex -2.85788 1.65 1.2
      vertex -2.85788 1.65 0
    endloop
  endfacet
  facet normal -0.412693 0.91087 0
    outer loop
      vertex 1.45955 -2.95968 0
      vertex 1.26285 -3.0488 1.2
      vertex 1.45955 -2.95968 1.2
    endloop
  endfacet
  facet normal -0.412693 0.91087 0
    outer loop
      vertex 1.26285 -3.0488 1.2
      vertex 1.45955 -2.95968 0
      vertex 1.26285 -3.0488 0
    endloop
  endfacet
  facet normal 0.986641 0.16291 0
    outer loop
      vertex -3.23659 -0.643798 1.2
      vertex -3.27177 -0.430736 0
      vertex -3.27177 -0.430736 1.2
    endloop
  endfacet
  facet normal 0.986641 0.16291 0
    outer loop
      vertex -3.27177 -0.430736 0
      vertex -3.23659 -0.643798 1.2
      vertex -3.23659 -0.643798 0
    endloop
  endfacet
  facet normal 0.412693 -0.91087 0
    outer loop
      vertex -1.45955 2.95968 0
      vertex -1.26285 3.0488 1.2
      vertex -1.45955 2.95968 1.2
    endloop
  endfacet
  facet normal 0.412693 -0.91087 0
    outer loop
      vertex -1.26285 3.0488 1.2
      vertex -1.45955 2.95968 0
      vertex -1.26285 3.0488 0
    endloop
  endfacet
  facet normal 0.935898 0.35227 0
    outer loop
      vertex -3.0488 -1.26285 1.2
      vertex -3.12487 -1.06075 0
      vertex -3.12487 -1.06075 1.2
    endloop
  endfacet
  facet normal 0.935898 0.35227 0
    outer loop
      vertex -3.12487 -1.06075 0
      vertex -3.0488 -1.26285 1.2
      vertex -3.0488 -1.26285 0
    endloop
  endfacet
  facet normal 0.773001 -0.634405 0
    outer loop
      vertex -2.61807 2.00891 1.2
      vertex -2.48107 2.17584 0
      vertex -2.48107 2.17584 1.2
    endloop
  endfacet
  facet normal 0.773001 -0.634405 0
    outer loop
      vertex -2.48107 2.17584 0
      vertex -2.61807 2.00891 1.2
      vertex -2.61807 2.00891 0
    endloop
  endfacet
  facet normal 0.290259 -0.956948 0
    outer loop
      vertex -1.06075 3.12487 0
      vertex -0.854102 3.18755 1.2
      vertex -1.06075 3.12487 1.2
    endloop
  endfacet
  facet normal 0.290259 -0.956948 0
    outer loop
      vertex -0.854102 3.18755 1.2
      vertex -1.06075 3.12487 0
      vertex -0.854102 3.18755 0
    endloop
  endfacet
  facet normal 0.999464 0.0327397 0
    outer loop
      vertex -3.29293 -0.21583 1.2
      vertex -3.3 0 0
      vertex -3.3 0 1.2
    endloop
  endfacet
  facet normal 0.999464 0.0327397 0
    outer loop
      vertex -3.3 0 0
      vertex -3.29293 -0.21583 1.2
      vertex -3.29293 -0.21583 0
    endloop
  endfacet
  facet normal 0.582468 0.812853 -0
    outer loop
      vertex -1.83338 -2.74385 0
      vertex -2.00891 -2.61807 1.2
      vertex -1.83338 -2.74385 1.2
    endloop
  endfacet
  facet normal 0.582468 0.812853 0
    outer loop
      vertex -2.00891 -2.61807 1.2
      vertex -1.83338 -2.74385 0
      vertex -2.00891 -2.61807 0
    endloop
  endfacet
  facet normal -0.290259 -0.956948 0
    outer loop
      vertex 0.854102 3.18755 0
      vertex 1.06075 3.12487 1.2
      vertex 0.854102 3.18755 1.2
    endloop
  endfacet
  facet normal -0.290259 -0.956948 -0
    outer loop
      vertex 1.06075 3.12487 1.2
      vertex 0.854102 3.18755 0
      vertex 1.06075 3.12487 0
    endloop
  endfacet
  facet normal 0.956948 -0.290259 0
    outer loop
      vertex -3.18755 0.854102 1.2
      vertex -3.12487 1.06075 0
      vertex -3.12487 1.06075 1.2
    endloop
  endfacet
  facet normal 0.956948 -0.290259 0
    outer loop
      vertex -3.12487 1.06075 0
      vertex -3.18755 0.854102 1.2
      vertex -3.18755 0.854102 0
    endloop
  endfacet
  facet normal 0.812853 -0.582468 0
    outer loop
      vertex -2.74385 1.83338 1.2
      vertex -2.61807 2.00891 0
      vertex -2.61807 2.00891 1.2
    endloop
  endfacet
  facet normal 0.812853 -0.582468 0
    outer loop
      vertex -2.61807 2.00891 0
      vertex -2.74385 1.83338 1.2
      vertex -2.74385 1.83338 0
    endloop
  endfacet
  facet normal 0.634405 -0.773001 0
    outer loop
      vertex -2.17584 2.48107 0
      vertex -2.00891 2.61807 1.2
      vertex -2.17584 2.48107 1.2
    endloop
  endfacet
  facet normal 0.634405 -0.773001 0
    outer loop
      vertex -2.00891 2.61807 1.2
      vertex -2.17584 2.48107 0
      vertex -2.00891 2.61807 0
    endloop
  endfacet
  facet normal -0.16291 0.986641 0
    outer loop
      vertex 0.643798 -3.23659 0
      vertex 0.430736 -3.27177 1.2
      vertex 0.643798 -3.23659 1.2
    endloop
  endfacet
  facet normal -0.16291 0.986641 0
    outer loop
      vertex 0.430736 -3.27177 1.2
      vertex 0.643798 -3.23659 0
      vertex 0.430736 -3.27177 0
    endloop
  endfacet
  facet normal -0.412693 -0.91087 0
    outer loop
      vertex 1.26285 3.0488 0
      vertex 1.45955 2.95968 1.2
      vertex 1.26285 3.0488 1.2
    endloop
  endfacet
  facet normal -0.412693 -0.91087 -0
    outer loop
      vertex 1.45955 2.95968 1.2
      vertex 1.26285 3.0488 0
      vertex 1.45955 2.95968 0
    endloop
  endfacet
  facet normal 0.849208 0.528058 0
    outer loop
      vertex -2.74385 -1.83338 1.2
      vertex -2.85788 -1.65 0
      vertex -2.85788 -1.65 1.2
    endloop
  endfacet
  facet normal 0.849208 0.528058 0
    outer loop
      vertex -2.85788 -1.65 0
      vertex -2.74385 -1.83338 1.2
      vertex -2.74385 -1.83338 0
    endloop
  endfacet
  facet normal 0.973873 0.227094 0
    outer loop
      vertex -3.18755 -0.854102 1.2
      vertex -3.23659 -0.643798 0
      vertex -3.23659 -0.643798 1.2
    endloop
  endfacet
  facet normal 0.973873 0.227094 0
    outer loop
      vertex -3.23659 -0.643798 0
      vertex -3.18755 -0.854102 1.2
      vertex -3.18755 -0.854102 0
    endloop
  endfacet
  facet normal 0.773001 0.634405 0
    outer loop
      vertex -2.48107 -2.17584 1.2
      vertex -2.61807 -2.00891 0
      vertex -2.61807 -2.00891 1.2
    endloop
  endfacet
  facet normal 0.773001 0.634405 0
    outer loop
      vertex -2.61807 -2.00891 0
      vertex -2.48107 -2.17584 1.2
      vertex -2.48107 -2.17584 0
    endloop
  endfacet
  facet normal 0.999464 -0.0327397 0
    outer loop
      vertex -3.3 0 1.2
      vertex -3.29293 0.21583 0
      vertex -3.29293 0.21583 1.2
    endloop
  endfacet
  facet normal 0.999464 -0.0327397 0
    outer loop
      vertex -3.29293 0.21583 0
      vertex -3.3 0 1.2
      vertex -3.3 0 0
    endloop
  endfacet
  facet normal -0.0327397 0.999464 0
    outer loop
      vertex 0.21583 -3.29293 0
      vertex 0 -3.3 1.2
      vertex 0.21583 -3.29293 1.2
    endloop
  endfacet
  facet normal -0.0327397 0.999464 0
    outer loop
      vertex 0 -3.3 1.2
      vertex 0.21583 -3.29293 0
      vertex 0 -3.3 0
    endloop
  endfacet
  facet normal 0.471405 0.881917 -0
    outer loop
      vertex -1.45955 -2.95968 0
      vertex -1.65 -2.85788 1.2
      vertex -1.45955 -2.95968 1.2
    endloop
  endfacet
  facet normal 0.471405 0.881917 0
    outer loop
      vertex -1.65 -2.85788 1.2
      vertex -1.45955 -2.95968 0
      vertex -1.65 -2.85788 0
    endloop
  endfacet
  facet normal 0.881917 0.471405 0
    outer loop
      vertex -2.85788 -1.65 1.2
      vertex -2.95968 -1.45955 0
      vertex -2.95968 -1.45955 1.2
    endloop
  endfacet
  facet normal 0.881917 0.471405 0
    outer loop
      vertex -2.95968 -1.45955 0
      vertex -2.85788 -1.65 1.2
      vertex -2.85788 -1.65 0
    endloop
  endfacet
  facet normal 0.995188 0.0979878 0
    outer loop
      vertex -3.27177 -0.430736 1.2
      vertex -3.29293 -0.21583 0
      vertex -3.29293 -0.21583 1.2
    endloop
  endfacet
  facet normal 0.995188 0.0979878 0
    outer loop
      vertex -3.29293 -0.21583 0
      vertex -3.27177 -0.430736 1.2
      vertex -3.27177 -0.430736 0
    endloop
  endfacet
  facet normal 0.91087 0.412693 0
    outer loop
      vertex -2.95968 -1.45955 1.2
      vertex -3.0488 -1.26285 0
      vertex -3.0488 -1.26285 1.2
    endloop
  endfacet
  facet normal 0.91087 0.412693 0
    outer loop
      vertex -3.0488 -1.26285 0
      vertex -2.95968 -1.45955 1.2
      vertex -2.95968 -1.45955 0
    endloop
  endfacet
  facet normal -0.0327397 -0.999464 0
    outer loop
      vertex 0 3.3 0
      vertex 0.21583 3.29293 1.2
      vertex 0 3.3 1.2
    endloop
  endfacet
  facet normal -0.0327397 -0.999464 -0
    outer loop
      vertex 0.21583 3.29293 1.2
      vertex 0 3.3 0
      vertex 0.21583 3.29293 0
    endloop
  endfacet
  facet normal 0.35227 0.935898 -0
    outer loop
      vertex -1.06075 -3.12487 0
      vertex -1.26285 -3.0488 1.2
      vertex -1.06075 -3.12487 1.2
    endloop
  endfacet
  facet normal 0.35227 0.935898 0
    outer loop
      vertex -1.26285 -3.0488 1.2
      vertex -1.06075 -3.12487 0
      vertex -1.26285 -3.0488 0
    endloop
  endfacet
  facet normal 0.881917 -0.471405 0
    outer loop
      vertex -2.95968 1.45955 1.2
      vertex -2.85788 1.65 0
      vertex -2.85788 1.65 1.2
    endloop
  endfacet
  facet normal 0.881917 -0.471405 0
    outer loop
      vertex -2.85788 1.65 0
      vertex -2.95968 1.45955 1.2
      vertex -2.95968 1.45955 0
    endloop
  endfacet
  facet normal 0.412693 0.91087 -0
    outer loop
      vertex -1.26285 -3.0488 0
      vertex -1.45955 -2.95968 1.2
      vertex -1.26285 -3.0488 1.2
    endloop
  endfacet
  facet normal 0.412693 0.91087 0
    outer loop
      vertex -1.45955 -2.95968 1.2
      vertex -1.26285 -3.0488 0
      vertex -1.45955 -2.95968 0
    endloop
  endfacet
  facet normal 0.995188 -0.0979878 0
    outer loop
      vertex -3.29293 0.21583 1.2
      vertex -3.27177 0.430736 0
      vertex -3.27177 0.430736 1.2
    endloop
  endfacet
  facet normal 0.995188 -0.0979878 0
    outer loop
      vertex -3.27177 0.430736 0
      vertex -3.29293 0.21583 1.2
      vertex -3.29293 0.21583 0
    endloop
  endfacet
  facet normal 0.290259 0.956948 -0
    outer loop
      vertex -0.854102 -3.18755 0
      vertex -1.06075 -3.12487 1.2
      vertex -0.854102 -3.18755 1.2
    endloop
  endfacet
  facet normal 0.290259 0.956948 0
    outer loop
      vertex -1.06075 -3.12487 1.2
      vertex -0.854102 -3.18755 0
      vertex -1.06075 -3.12487 0
    endloop
  endfacet
  facet normal -0.227094 -0.973873 0
    outer loop
      vertex 0.643798 3.23659 0
      vertex 0.854102 3.18755 1.2
      vertex 0.643798 3.23659 1.2
    endloop
  endfacet
  facet normal -0.227094 -0.973873 -0
    outer loop
      vertex 0.854102 3.18755 1.2
      vertex 0.643798 3.23659 0
      vertex 0.854102 3.18755 0
    endloop
  endfacet
  facet normal 0.729859 -0.683598 0
    outer loop
      vertex -2.48107 2.17584 1.2
      vertex -2.33345 2.33345 0
      vertex -2.33345 2.33345 1.2
    endloop
  endfacet
  facet normal 0.729859 -0.683598 0
    outer loop
      vertex -2.33345 2.33345 0
      vertex -2.48107 2.17584 1.2
      vertex -2.48107 2.17584 0
    endloop
  endfacet
  facet normal 0.471405 -0.881917 0
    outer loop
      vertex -1.65 2.85788 0
      vertex -1.45955 2.95968 1.2
      vertex -1.65 2.85788 1.2
    endloop
  endfacet
  facet normal 0.471405 -0.881917 0
    outer loop
      vertex -1.45955 2.95968 1.2
      vertex -1.65 2.85788 0
      vertex -1.45955 2.95968 0
    endloop
  endfacet
  facet normal 0 -1 0
    outer loop
      vertex 1.74308 2.8 0
      vertex 6.41223 2.8 1.2
      vertex 1.74308 2.8 1.2
    endloop
  endfacet
  facet normal 0 -1 -0
    outer loop
      vertex 6.41223 2.8 1.2
      vertex 1.74308 2.8 0
      vertex 6.41223 2.8 0
    endloop
  endfacet
  facet normal 0 1 -0
    outer loop
      vertex 6.41223 -2.8 0
      vertex 1.74308 -2.8 1.2
      vertex 6.41223 -2.8 1.2
    endloop
  endfacet
  facet normal 0 1 0
    outer loop
      vertex 1.74308 -2.8 1.2
      vertex 6.41223 -2.8 0
      vertex 1.74308 -2.8 0
    endloop
  endfacet
endsolid OpenSCAD_Model
